<svg xmlns="http://www.w3.org/2000/svg" width="520" height="520" fill="none"><path fill="#231F20" d="M254.26 148.19s7.93 11.59 5.69 31.36c-1.79 15.72-13.63 29.2-18.92 31.24-5.29 2.04-27.17 1.36-27.17 1.36s-14.25-7.91-17-11.23c-2.75-3.31-7.5-17.68-7.5-17.68s-12.28-6.53-13.78-12.74c-1.51-6.21 8.94-12.9 8.94-12.9l14.12 8.66 5.51-17.02s15.1-9.31 18.77-7.01c3.67 2.29 9.79 8.51 9.79 8.51l5.88-11.58 15.67 9.02v.01Z" opacity=".1"/><path fill="#231F20" d="M246.06 168.6c-.55 2.86-.44 5.9 1.02 8.49 1.38 2.44 3.86 4.04 6.6 4.53.86.15 1.75-.23 2-1.13.22-.79-.27-1.84-1.13-2-.61-.11-1.19-.27-1.77-.48-.11-.04-.09-.03.07.03-.06-.03-.13-.06-.19-.09-.12-.06-.25-.12-.37-.18-.24-.12-.46-.26-.69-.41-.04-.03-.38-.27-.21-.14s-.2-.17-.24-.2c-.19-.17-.38-.35-.55-.54-.09-.09-.17-.19-.25-.29-.22-.26.14.23-.06-.08-.14-.22-.29-.43-.41-.65-.12-.22-.24-.46-.35-.7.17.35-.01-.05-.03-.1-.05-.13-.09-.25-.13-.38-.08-.26-.15-.52-.21-.79-.03-.14-.06-.27-.08-.41-.02-.13-.06-.42-.02-.12-.07-.58-.09-1.17-.07-1.75.01-.33.04-.66.07-.99.01-.12.01-.1 0 .04.01-.08.02-.16.04-.24.03-.18.06-.37.1-.55.17-.86-.24-1.75-1.13-2-.8-.22-1.83.27-2 1.13h-.01Zm-4.92 29.83c.51 3.48 3.37 6.49 6.76 7.32.82.2 1.8-.26 2-1.13.2-.87-.25-1.78-1.13-2-.35-.09-.67-.22-1.01-.33.45.14.18.08.06.02l-.24-.12c-.16-.08-.31-.17-.46-.26-.15-.09-.3-.19-.44-.29-.07-.05-.14-.11-.21-.16.4.29.13.1.05.03a7.67 7.67 0 0 1-.77-.74c-.12-.13-.22-.29-.34-.41l.15.19-.11-.14c-.05-.07-.1-.14-.15-.22-.2-.29-.37-.6-.53-.92-.04-.08-.07-.17-.11-.24l.09.23c-.02-.05-.04-.11-.07-.16-.06-.15-.11-.3-.16-.46-.11-.35-.19-.71-.24-1.08-.05-.37-.44-.79-.75-.97-.35-.2-.86-.29-1.25-.16-.39.13-.77.37-.97.75-.22.41-.23.79-.16 1.25h-.01ZM20.5 434.16c-.71.05-1.29-.54-1.8-.9-.16-.12-.12-.37.08-.46.4-.16.8-.4 1.21-.58.06 0 .35-.18.77-.2.42-.05.97-.12 1.55-.19 1.17-.18 2.47-.25 3.14-.31 1.28-.11 2.56-.12 3.84-.11l7.82.03c.58 0 1.16.04 1.74.12 1.98.26 3.97.31 5.96.29.33 0 .67.02.99-.08.53-.17 5.93-.04 6.63.07 1.73.26 3.47.46 5.2.7.25.03.52 0 .74.15.51.33 1.05.31 1.59.36.75.08 1.5.18 2.25.34.38.11.74.26 1.08.53.31.21.07.53-.05.58-.35.1-.11.33-.1.5 0 .06 0 .13-.02.18-.05.14-1.07.2-2.21.35-1.12.12-2.31.28-2.53.26-.03 0-.44 0-1.04-.01H55.1c-1.66.02-3.39.04-3.74.06-.37.02-.74-.06-1.11-.11-.17-.03-5.16.12-5.36.11-1.03-.05-2.07.05-3.09-.24-.2-.06-.41-.05-.62-.04-1.78.02-3.55-.12-5.32-.22-.91-.05-1.81-.03-2.72-.05-.16 0-.33-.05-.49-.07-.21-.03-.41-.07-.62-.07-2.15-.01-4.3-.2-6.45-.13-.25 0-.96-.08-1.69-.17-.72-.09-1.46-.24-1.74-.23-.32-.01-1.36-.51-1.64-.45l-.01-.01Zm160.16 4.79c.62.03 1.13.28 1.59.37.15.03.12.1-.05.14-.34.09-.68.21-1.03.34-.11.04-1 .31-2 .69-1.01.3-2.14.47-2.7.63-1.1.31-2.22.34-3.33.41l-6.78.41c-.5.03-1.01.03-1.51-.03-1.73-.18-3.45-.15-5.17-.04-.29.02-.58 0-.85.13-.46.18-5.07.36-5.65.34-1.48-.1-2.96-.17-4.45-.2-.21 0-.43.06-.64-.05-.48-.24-.93-.13-1.38-.09-.63.06-1.26.11-1.91.12-.32 0-.65-.08-.98-.14-.3-.05-.23-.45-.14-.51.26-.18-.01-.31-.07-.45-.02-.05-.05-.12-.04-.16 0-.05.88-.47 1.83-.87.95-.39 1.97-.75 2.17-.79.02 0 .38-.08.92-.19.54-.1 1.25-.23 1.98-.37 1.46-.25 2.99-.4 3.3-.45.32-.05.66 0 .99.03.16 0 4.52-.44 4.69-.43.9 0 1.8-.14 2.69.11.18.05.36.03.54.02 1.54-.1 3.08-.04 4.63.03.79.03 1.58-.02 2.36-.02.14 0 .28.04.43.05.18.02.36.06.54.05.93-.03 1.87 0 2.8 0 .93.02 1.87-.03 2.8 0 .21 0 .84.11 1.47.2.63.09 1.27.16 1.52.24.28.07 1.2.49 1.44.47l-.01.01Zm49.69-7.53c.45-.05.85.1 1.21.19.11.03.12.15 0 .21-.24.11-.48.24-.73.37-.07.04-.72.28-1.45.65-.18.08-.37.2-.55.27-.19.06-.37.12-.55.17-.35.11-.66.21-.87.28-.81.29-1.64.47-2.47.57-1.69.23-3.38.47-5.08.66-.38.04-.76.05-1.14.02-1.31-.08-2.61-.03-3.92.04-.22.01-.44 0-.65.11-.34.22-3.93.15-4.4.02-.59-.14-1.17-.27-1.73-.4-.58-.13-1.15-.26-1.74-.44-.16-.06-.35-.06-.48-.22-.3-.36-.66-.39-1.02-.54-.49-.2-.97-.34-1.43-.67-.23-.15-.4-.4-.58-.6-.16-.18.12-.43.2-.44.25-.02.16-.24.21-.37.02-.05.04-.11.07-.14.01-.02.2-.02.46-.02.27 0 .55.05.93 0 .72-.05 1.42-.15 1.58-.16h.64c.36.04.86.07 1.38.07 1.02.04 2.11 0 2.33-.02.23-.02.46.06.69.11.11.03 3.26-.21 3.39-.23.65.02 1.31-.11 1.97.13.13.05.26.03.4.02 1.13-.04 2.27.03 3.41.07.58.01 1.16-.05 1.74-.06.1 0 .21.03.32.04.13.01.27.04.4.03 1.38-.06 2.72-.12 4.14-.18.32 0 1.86.11 2.24.2.21.04.92.3 1.1.25l-.02.01Z"/><path fill="#231F20" d="M278.8 307.7c-.77 1.95 1.85 7.68 4.8 6.57 2.95-1.11 14.64-6.57 14.64-6.57s5.72-7.41 7.03-7.92c1.31-.51 4.19-11.1 4.19-11.1v-12.62l-1.93-1.9-3.32 5.55s-2.08-1.86-2.48-1.88c-.4-.02-2.48 3.71-2.48 3.71l-8.15 5.65-3.39 7.16-.18 4.76-8.73 8.58v.01Zm-38.03-21.97s-1.03-4.65 3.49-5.58c4.52-.93 10.13-3.11 11.66-4.98 1.53-1.87 10.65-14.37 10.65-14.37s6.39-4.59 11.85-3.18c5.46 1.41 9.12 5.38 9.7 7.7.58 2.32-3.36 12.07-5.26 13.55-1.9 1.48-5.65 3.68-5.65 3.68s-1.93 1.66-2.81 1.29c-.88-.37-3.43-1.67-2.56-2.81.87-1.14 1.84-2.89.51-3.33-1.33-.44-3.91 2.31-4.5 3.85-.59 1.54-4.52 7.16-4.52 7.16l-12.26 1.24-10.85 5.74.56-9.96h-.01Zm23.34-92.7s.62-1.97 0-4.15c-.62-2.18-3.86-6.63-5.3-3.43-2.15 4.79-2.7 11.33-2.7 11.33l8-3.74v-.01Z" opacity=".1"/><path fill="#231F20" d="M362.8 235.21c1.67.68 3.36 1.32 5.06 1.95 1.69.64 3.4 1.25 5.12 1.81 1.26.4 2.54.71 3.8 1.06.91.25 1.82.48 2.72.67.45.09.89.16 1.31.21.19.01.42.04.56.03.14 0 .19 0 .27-.04.05-.03.1-.04.17-.11.08-.06.17-.14.25-.24.17-.18.32-.42.46-.67.28-.52.51-1.12.71-1.74.39-1.25.65-2.6.87-3.95.33-2.04.5-4.13.7-6.2l.19-2c.08-.67.2-1.34.32-2 .22-1.34.65-2.66 1.22-3.91.38-.78.49-.6.56.15.06.45.12.97.19 1.52.11.62.16 1.33.1 2.07-.1 2.66-.41 5.34-.67 8.07-.15 1.37-.32 2.74-.58 4.14-.27 1.39-.59 2.8-1.21 4.23-.22.47-.44.94-.78 1.41s-.7.94-1.44 1.37c-.24.08-.48.17-.72.24-.25.03-.48.06-.66.06-.37 0-.73 0-1.05-.04-.67-.05-1.3-.14-1.93-.24-1.25-.21-2.48-.47-3.68-.77-3.63-.94-7.18-2.05-10.66-3.38-2.14-.81-4.27-1.67-6.37-2.6-1.59-.7-3.17-1.46-4.72-2.34-.77-.44-1.54-.9-2.28-1.51-.37-.3-.75-.64-1.09-1.15-.25-.45-.46-.9-.61-1.36-.89-2.8-.97-5.48-.9-8.15.03-.59.05-1.16.11-1.74.26-2.16.59-2.81 1.07-3.25.11-.1.22-.24.33-.3.34-.21.65.71.88 2.31.16 1.19.25 2.37.4 3.55.09 1.17.22 2.34.37 3.47.11 1.12.27 2.24.57 3.12.08.21.14.44.24.58l.06.12.03.06v.02h.01c.32-.19-.44.26-.35.21h.01l.02-.02.19-.1s.16-.09.15-.08v.01c.01.01-.01 0 .03.04.2.21.62.53 1.06.82 1.35.87 2.98 1.67 4.6 2.42 1.63.75 3.31 1.45 5.01 2.1l-.02.07Z" opacity=".3"/><path fill="#231F20" d="M349.5 207.19c.13-.82.27-1.65.44-2.47.06-.3.07-.61.15-.91.26-1.06.7-2.09 1.19-3.08.21-.44.42-.88.68-1.29.32-.52.62-1.1 1.24-1.39.18-.1.25 0 .32.25.04.23.23.71.11 1-.22.51-.34 1.07-.54 1.57-.22.49-.44 1-.68 1.53-.28.63-.37 1.35-.5 2.05-.16.77-.29 1.56-.4 2.36-.07.49-.13.99-.18 1.48-.07.75-.2 1.52-.22 2.27-.02.59.07 1.17.03 1.75 0 .13 0 .25-.01.38-.06.48-.18.62-.53.71-.08.02-.16.05-.24.06-.26.03-.48-.17-.59-.53-.16-.53-.34-1.07-.41-1.61-.05-.54-.07-1.09-.07-1.64-.02-.82.07-1.64.16-2.47h.05v-.02Zm-.88 24.32c-.24-.67-.44-1.36-.59-2.04-.06-.25-.14-.49-.18-.74-.15-.89-.1-1.8-.06-2.68.01-.39.05-.78.07-1.16.04-.49.12-.98.25-1.45.04-.15.07-.12.11.01.03.13.1.38.11.65.04.98.22 1.93.33 2.88.06.57.29 1.14.43 1.7.17.62.38 1.23.63 1.82.15.37.32.73.52 1.07.28.53.59 1.06.98 1.52.31.35.69.62 1.06.88.08.06.17.11.25.17.29.23.28.41.1.76-.04.08-.08.17-.13.24-.16.25-.45.34-.76.22-.87-.39-1.56-1.12-2.12-1.92-.42-.59-.76-1.24-1.03-1.91l.03-.02Z"/><path fill="#231F20" d="M347.19 231.99c-.07-.33-.11-.66-.14-.98-.02-.11-.05-.23-.04-.35.04-.42.14-.82.24-1.2.04-.17.06-.34.07-.5.02-.21.01-.44.2-.62.1-.1 1 .32 1.03.5.02.34.04.65-.08.99-.08.21.05.41.09.61.04.23.05.46.11.69.03.14.07.29.13.42.08.21.15.43.3.6.12.13.31.18.47.25.03.02.08.02.11.04.11.07.07.18-.18.53l-.17.24c-.19.26-.42.43-.59.41-.51-.04-.89-.35-1.16-.71-.22-.26-.35-.58-.45-.91l.04-.02.02.01Z"/><path fill="#231F20" d="M348.19 221.68c.09-1.87.23-3.74.4-5.61.06-.68.07-1.36.15-2.04.3-2.39.64-4.77 1.09-7.13.22-1.04.35-2.1.58-3.14.29-1.33.67-2.64 1.03-3.95.12-.41.13-.35.14.02.01.36.05 1.04.05 1.82 0 1.4.09 2.79-.09 4.15l-.21 2.05c-.12.68-.23 1.35-.35 2.04-.29 1.63-.35 3.35-.48 5.03-.16 1.85-.29 3.71-.38 5.56-.05 1.14-.09 2.29-.11 3.43 0 1.73-.05 3.49.1 5.18.12 1.31.46 2.56.97 3.65.11.24.26.45.36.69.42.86.53 1.15.33 1.63-.04.11-.07.23-.13.32-.16.31-.74.2-1.39-.47-1-.98-1.46-2.36-1.76-3.66-.29-1.32-.36-2.65-.39-3.92-.06-1.89-.01-3.79.04-5.68h.05v.03Z"/><path fill="#231F20" d="M494.62 236.35c.48-4.12.71-8.26.68-12.36-.01-1.5-.18-2.98-.27-4.45-.12-1.29-.25-2.58-.55-3.8-.29-1.2-.71-2.43-1.36-3.26-.72-.83-1.84-1.66-2.88-2.43a63.45 63.45 0 0 0-3.32-2.19c-2.01-1.24-4.11-2.38-6.2-3.44-1.35-.68-2.73-1.3-4.09-1.95l-2.02-1.01-1.02-.49c-.33-.18-.65-.4-.98-.58-.81-.52-.71-.46.14-.47.88-.1 2.47-.01 4.17.54.75.24 1.49.53 2.2.87.72.32 1.43.65 2.14.99 1.42.68 2.81 1.4 4.19 2.15 1.37.78 2.72 1.58 4.05 2.46 1.33.87 2.63 1.78 3.89 2.86.38.3.75.69 1.13 1.06.19.23.39.46.57.69l.41.71c.27.47.44.96.65 1.45.15.49.35.98.46 1.47.52 1.97.78 3.95.89 5.9.16 4.3-.17 8.53-.59 12.74-.25 2.59-.56 5.17-.9 7.75-.51 3.9-1.17 7.79-1.78 11.64-.46 3-.91 5.94-1.36 8.9-.11.65-.21 1.29-.32 1.95-.2 1.22-.5 1.99-.71 2.53-.22.54-.46.82-.74 1.03-.12.1-.25.23-.35.28-.31.17-.47-.88-.32-2.69.63-5.31 1.64-10.83 2.47-16.41.63-4.14 1.23-8.29 1.66-12.46h.05l.01.02Z" opacity=".3"/><path fill="#231F20" d="M497.68 219.18c-.07-1.29-.23-2.58-.49-3.83-.09-.46-.26-.9-.37-1.35-.44-1.59-1.05-3.16-1.95-4.56-.37-.64-.84-1.22-1.33-1.77-.32-.35-.68-.65-1.01-.99-.33-.34-.66-.7-1.02-1.03-.22-.22-.15-.25.13-.22s.84.08 1.4.32c1.84 1.05 3.33 2.74 4.1 4.71.49 1.16 1.06 2.33 1.42 3.56.41 1.34.61 2.74.73 4.11.08.85.11 1.7.13 2.54.03 1.28-.01 2.56-.08 3.81-.05.98 0 1.94-.11 2.9-.02.21-.03.42-.06.63-.12.79-.23 1.03-.46 1.18-.05.03-.1.08-.15.1-.16.06-.28-.27-.36-.85-.09-.87-.29-1.76-.32-2.65-.04-.89-.08-1.78-.13-2.67 0-1.32 0-2.64-.11-3.94h.04Z"/><path fill="#231F20" d="M493.96 208.84c.98.88 2.05 1.73 2.92 2.91.31.43.6.88.8 1.37.68 1.72.79 3.44.95 5.14.05.76.14 1.52.13 2.27 0 .97-.04 1.94-.19 2.89-.05.3-.12.25-.2 0-.08-.26-.22-.72-.29-1.27-.28-1.93-.42-3.81-.67-5.73-.15-1.15-.5-2.28-1.04-3.24-.58-1.05-1.56-1.87-2.59-2.69-.63-.51-1.27-1.01-1.92-1.5-.98-.74-1.97-1.48-2.99-2.14-.79-.53-1.61-.96-2.43-1.43-.18-.1-.36-.19-.54-.3-.65-.42-.78-.67-.74-1.04 0-.09 0-.18.03-.25.07-.25.45-.28 1.02-.1.82.29 1.6.7 2.38 1.12.78.42 1.55.9 2.26 1.45 1.07.8 2.11 1.66 3.14 2.52l-.02.03-.01-.01Zm-73.97 42.28c-.48-1.13-.81-2.33-.98-3.51-.07-.43-.15-.86-.18-1.3-.09-1.54-.01-3.06.2-4.56.12-.66.19-1.33.34-1.97.2-.83.48-1.64.67-2.46.13-.51 0 .14.04 1.13.05.88.18 1.75.08 2.59-.02.85-.12 1.68-.23 2.52-.11 1.01 0 2.06.12 3.08.13 1.12.37 2.22.77 3.27.24.65.54 1.28.9 1.87.54.9 1.19 1.74 1.98 2.41.61.53 1.35.83 2.04 1.18.15.08.31.14.47.2.58.27.76.37.84.68.02.07.05.14.05.2.02.21-.29.3-.84.26-1.64-.13-3.18-1.16-4.28-2.42-.85-.93-1.51-2.02-2.02-3.15h.03v-.02Z"/><path fill="#231F20" d="M421.18 252.46c-.81-1.27-1.29-2.7-1.5-4.12-.08-.52-.18-1.03-.21-1.54-.09-1.82.1-3.59.32-5.33.11-.77.2-1.54.28-2.3.06-.98.29-1.95.51-2.92.08-.3.14-.25.23.01.08.27.26.76.32 1.34.14 1.02.04 2.02.01 3.03-.03 1-.17 1.98-.28 2.97-.14 1.18-.04 2.41.11 3.58.18 1.28.48 2.55 1.06 3.68.36.7.8 1.35 1.36 1.92.83.86 1.84 1.59 2.95 2.13.86.42 1.77.68 2.69.95.2.06.41.1.61.17.72.34.91.55.96.93.01.09.03.18.03.26-.01.26-.39.37-1.01.34-.46 0-.9-.12-1.33-.24-.44-.12-.88-.27-1.32-.44-.88-.34-1.75-.76-2.59-1.29-1.24-.79-2.39-1.83-3.23-3.12l.03-.02v.01Z"/><path fill="#30A46C" d="M400.33 125.1c-.44 1.96.71 15.34-1.85 15.76-2.56.42 9.97 6.76 11.05 4.81 1.08-1.95 2.98-16.36 2.25-16.36s-4.87-1.67-4.87-1.67l-6.57-2.54h-.01Z" opacity=".5"/><path fill="#231F20" d="M411.74 140.29c-.42.77-.89 1.49-1.54 2.13-.23.23-.45.46-.71.66-.92.65-1.98 1.08-3.07 1.22-.48.07-.98.09-1.47.06-.61-.07-1.3-.26-1.66-.83-.12-.16-.06-.19.15-.23.14-.04.28-.07.4-.1.16-.06.32-.11.45-.07.24.03.49.04.72.04.23.02.47.03.72.01.49-.03.98-.13 1.49-.27.61-.17 1.14-.61 1.61-1.05.52-.47.94-1.06 1.29-1.72.21-.4.4-.82.55-1.27.22-.67.42-1.36.49-2.08.07-.55-.04-1.12 0-1.67 0-.12 0-.24.01-.37.07-.45.24-.59.61-.66.08-.02.17-.04.25-.04.27-.02.49.19.63.54.1.26.14.53.19.8.05.27.09.55.05.82-.03.54-.13 1.1-.26 1.66-.2.82-.49 1.65-.88 2.44h-.04l.02-.02Z"/><path fill="#231F20" d="M410.44 144.27c-.27.14-.57.22-.84.29-.1.03-.18.1-.28.11-.37.06-.73.06-1.07.06-.15 0-.29.03-.43.07-.18.04-.37.14-.56-.02-.11-.09.04-1.33.14-1.39.23-.1.44-.15.73-.07.18.05.3-.11.44-.18.16-.07.32-.15.48-.24.1-.05.21-.1.3-.17.14-.1.3-.2.37-.36.05-.13 0-.3-.03-.45 0-.03-.03-.07-.03-.1 0-.1.14-.07.64.09l.34.11c.39.13.68.3.74.46.18.48 0 .89-.25 1.21-.19.24-.43.43-.67.61l-.03-.04.01.01Z"/><path fill="#231F20" d="M454.93 188.39c2.43-10.3 4.23-20.83 5.3-31.39.38-3.85.55-7.72.63-11.56.04-3.37-.01-6.78-.64-9.92-.17-.76-.37-1.55-.66-2.13-.23-.58-.71-1.13-1.19-1.67-1.06-1.05-2.42-1.94-3.85-2.72-2.89-1.56-6.1-2.72-9.33-3.78-3.24-1.05-6.54-1.94-9.86-2.8-5.9-1.51-11.91-2.75-17.83-4.21-1.89-.45-3.85-1.04-5.65-1.49-1.86-.45-3.76-.84-5.68-1.28-1.92-.45-3.84-.98-5.74-1.69-.95-.36-1.88-.78-2.77-1.29-.45-.26-.89-.51-1.31-.81-.41-.31-.9-.52-1.19-1-.44-.49-.66-.93-.82-1.18-.15-.26-.2-.39-.15-.42.11-.07.6.32 1.65.58 2.05.64 5.52 1.18 9.78 2.12l5.79 1.33c.99.23 1.99.5 3 .79.94.28 1.86.54 2.81.8 3.78 1.01 7.65 1.9 11.52 2.84 7.74 1.9 15.59 3.75 23.21 6.93 2.27.98 4.55 2.08 6.71 3.6 1.07.78 2.12 1.7 2.99 2.91.22.3.42.61.59.97.19.35.34.7.44 1.02.24.66.41 1.31.55 1.95.55 2.58.73 5.11.81 7.63.07 2.52.02 5.01-.1 7.49-.6 10.88-2.18 21.62-4.31 32.25-.67 3.27-1.41 6.53-2.26 9.77-.87 3.24-1.78 6.46-3.12 9.62-.29.67-.61 1.33-.99 1.99-.4.65-.79 1.35-1.71 1.96-.36.15-.75.34-1.08.39-.32.05-.66.11-.98.12-.61 0-1.22 0-1.78-.08-1.15-.12-2.24-.36-3.32-.61-2.16-.52-4.24-1.17-6.32-1.84-4.15-1.34-8.21-2.83-12.26-4.27-7.31-2.6-14.48-5.13-21.77-7.31-1.61-.47-3.19-.89-4.81-1.32-3.01-.78-4.97-1.29-6.34-1.67-.68-.23-1.22-.4-1.67-.58-.45-.19-.8-.37-1.13-.56-.29-.17-.7-.34-.88-.5-.3-.26.18-.47 1.39-.67 1.19-.13 3.1-.2 5.44.19 3.48.54 6.88 1.46 10.3 2.42 3.41.98 6.81 2.08 10.2 3.23 6.81 2.25 13.53 4.96 20.33 7.29 2.38.82 4.77 1.59 7.15 2.2 1.19.32 2.37.55 3.5.74.54.05 1.12.13 1.57.11.49.03.82-.13.78-.07-.09.11.33-.34.59-.83.29-.5.56-1.09.82-1.69.51-1.22.97-2.51 1.38-3.83.84-2.64 1.54-5.36 2.19-8.1h.08v.03Z" opacity=".3"/><path fill="#231F20" d="M463.71 148.01c.13-2.35.18-4.71.11-7.07-.02-.86-.13-1.72-.16-2.57-.15-3-.53-5.94-2.38-8.23-.8-1.02-1.83-1.86-2.86-2.67-1.37-1-2.83-1.94-4.28-2.91-.45-.3-.38-.28.07-.15.45.13 1.32.28 2.29.61.86.3 1.68.69 2.51 1.11.82.43 1.65.9 2.34 1.57 1.42 1.26 2.64 2.93 3.23 4.8.68 2.22.98 4.52 1.11 6.71.15 2.42.18 4.85.11 7.28-.03 1.49-.12 2.98-.22 4.47-.18 2.25-.46 4.5-.74 6.72-.22 1.73-.37 3.43-.69 5.12-.07.37-.13.74-.22 1.11-.35 1.38-.59 1.78-.97 2.01-.09.05-.18.12-.26.15-.26.08-.35-.53-.29-1.56.07-1.54.19-3.09.32-4.66.17-1.56.33-3.15.47-4.73.2-2.36.34-4.73.46-7.1h.05v-.01Z"/><path fill="#231F20" d="M464.43 136.15c.02-.61.02-1.22-.03-1.83-.01-.22-.09-.44-.11-.66-.07-.79-.09-1.61-.27-2.4a7.07 7.07 0 0 0-.31-1.02c-.16-.42-.35-.84-.45-1.29-.03-.14.1-.19.29-.15.19.04.46.17.62.39.53.82.99 1.69 1.2 2.65.13.57.39 1.13.5 1.72.13.65.21 1.3.27 1.96.04.4.05.81.07 1.21.04.61.01 1.23.03 1.83 0 .47.14.94.13 1.41 0 .1.02.21 0 .31-.04.39-.18.5-.61.53-.1 0-.2.02-.29.02-.32 0-.59-.18-.69-.45-.13-.41-.31-.81-.34-1.21-.05-.4-.07-.8-.1-1.21 0-.6.05-1.21.04-1.82h.04l.01.01Z"/><path fill="#231F20" d="M49.51 420.68c2.94.19 5.76.72 8.28.5.92-.08 1.74-.37 2.48-.69 1.27-.53 2.36-1.67 3.23-3.13.89-1.45 1.6-3.13 2.38-4.84.7-1.51 1.37-3.1 2.41-4.59.35-.47.7-.94 1.14-1.37.39-.46.92-.82 1.47-1.11.56-.27 1.15-.55 1.82-.56.33 0 .67.07.99.18.32.11.62.21.89.37.34.19.44.34.41.41-.03.08-.23.1-.52.26-.29.15-.67.42-.93.95-.14.24-.25.49-.37.68-.13.16-.27.29-.43.42-.29.2-.53.51-.81.73-.27.28-.56.53-.81.87-.52.65-1.01 1.41-1.46 2.28-.92 1.72-1.73 3.72-2.9 5.7-.7 1.18-1.43 2.44-2.46 3.59-1.01 1.15-2.45 2.15-3.93 2.55-3.26.93-6.3.46-9.13.27l-2.65-.17c-.88-.06-1.76-.11-2.63-.13-2.64-.08-5.31-.07-7.82.46-1.94.41-3.75 1.23-5.01 2.34-.28.25-.48.53-.75.75-.45.45-.75.75-1.03.96-.32.19-.6.3-1.01.35-.18.02-.37.08-.54.09-.28.01-.48-.17-.61-.58-.12-.4-.16-1.06.14-1.8.2-.56.49-1.09.83-1.59.34-.5.79-.9 1.24-1.28.91-.74 1.91-1.29 2.93-1.72 2.04-.86 4.16-1.2 6.22-1.37 3.06-.25 6.09-.06 8.97.14v.08h-.03Z" opacity=".25"/><path fill="#231F20" d="M75.87 411.05c-.05 1.18-.21 2.33-.38 3.44-.06.41-.08.81-.15 1.21-.28 1.41-.53 2.78-.73 4.16-.09.61-.1 1.23-.08 1.84.03.78 0 1.57 0 2.38 0 .25-.08.24-.25.06-.15-.18-.49-.52-.68-.98-.38-.81-.47-1.68-.51-2.54-.04-.86 0-1.71.2-2.54.21-.99.24-2.02.35-3.02.13-1.09.26-2.17.29-3.24.02-.66.01-1.32-.05-1.97-.07-.49-.1-.99-.24-1.39-.14-.43-.36-.84-.65-1.2a3.14 3.14 0 0 0-1.66-1.05c-.13-.02-.25-.04-.37-.04-.11-.01-.19-.04-.27-.06-.07-.04-.12-.13-.17-.2-.1-.13-.17-.34-.25-.59l-.11-.31c-.05-.16-.01-.31.12-.52.13-.21.38-.38.72-.47 1-.07 1.97.38 2.71.97.73.61 1.28 1.38 1.66 2.24.3.62.44 1.47.48 2.01.07.61.08 1.22.07 1.81h-.05Z"/><path fill="#231F20" d="M74.38 406.45c-.01-.14-.04-.28-.09-.41-.02-.05-.06-.08-.08-.13-.07-.17-.15-.35-.27-.5a.55.55 0 0 0-.19-.15c-.09-.05-.2-.07-.26-.18-.04-.07.27-.53.43-.49.26.09.49.25.64.5.08.14.23.23.33.36.11.14.2.3.28.46.05.1.09.2.13.3.06.16.08.32.14.47.04.12.13.23.19.35.01.03.04.05.04.08.03.11-.04.15-.29.19l-.17.02c-.2.02-.36 0-.43-.05-.19-.15-.25-.29-.32-.45-.05-.11-.07-.24-.09-.37h.02-.01Zm90.75-95.62c-.54-.45-50.35-2.31-50.35-2.31l-23.84-1.62s-7.5 11.4-8.38 18.44c-.88 7.05.09 23.47 3.03 28.29s17.1 17.66 17.1 17.66 20.36 10.74 24.2 12.29c3.84 1.55 10.86 3.95 9.35 4.73-1.51.78-13.43.45-14.58.3-1.15-.15-32.37-3.73-32.37-3.73s-6.68-1.17-8.11 2.86c-1.43 4.03-5.29 23.75-5.69 29.39-.4 5.63.28 18.72.28 18.72l14.74 2.96s31.9 1.51 39.81 2.89c7.91 1.39 36.2-3.28 36.2-3.28s21.31-7.27 24.92-10.8c3.61-3.54 8.9-10.79 9.18-12.49.28-1.69.48-16.92 0-19.1-.48-2.18-6.53-18.58-6.53-18.58L184.83 361l-8.1-12.31-5.76-9.81s-.19 0 2.35.85 10.15 11.48 16 19.95c5.85 8.47 14.59 27.45 16.96 36.39 2.8 10.54 3.65 22.86-3.6 31.75-3.07 3.76-2.84 4.24 3.01 4.8 5.85.56 15.65-3.75 19.78-7.06 4.13-3.31 9.09-13.21 9.47-15.48.37-2.27-1.4-18.84-1.4-18.84s-7.04-18.89-7.96-19.04c-.92-.15-15.64-21.34-17.35-23.66-1.71-2.32-13.58-17.27-14.3-18.22-.72-.95-7.1-11.25-7.1-11.25l-16.73-4.55-4.99-3.71.02.02Z"/><path fill="#231F20" d="M232.37 237.86c-.83-1.02-1.63-2.05-2.35-3.15-.27-.4-.57-.77-.8-1.19-.79-1.5-1.53-3.02-2-4.63-.24-.7-.47-1.39-.71-2.08-.31-.88-.47-1.81-.49-2.76 0-.29.19-.3.5-.13.3.17.77.5 1.04.95.52.78.86 1.59 1.25 2.39.18.4.38.8.57 1.2.19.4.34.82.5 1.24.35 1.03 1.09 1.89 1.71 2.79.7.98 1.38 1.99 2.18 2.93.47.59.98 1.15 1.5 1.71.8.82 1.61 1.67 2.52 2.38.7.56 1.51.97 2.27 1.43.17.1.35.18.51.29.59.44.65.74.33 1.39-.07.15-.13.31-.22.44-.28.47-.8.64-1.34.45-1.59-.58-2.96-1.65-4.27-2.8-.97-.85-1.88-1.82-2.77-2.78l.05-.05.02-.02Z" opacity=".25"/><path fill="#231F20" d="M248.67 291.82c.47 1.64.05 20.21-4.97 19.87-2.17-.15-4.32-2.16-3.96-7.52.36-5.35 3.44-9.06 3.44-9.06l5.48-3.29h.01Zm-9.15-9.92c-.02.18-.03.36-.05.53 0 .06.02.12.01.18-.03.22-.12.43-.17.63-.02.09-.02.17-.01.26 0 .11.04.22-.06.33-.06.06-.76-.05-.82-.15-.08-.18-.13-.34-.05-.53.04-.12-.04-.22-.06-.32-.02-.12-.03-.24-.05-.37a.948.948 0 0 0-.05-.23c-.03-.11-.05-.23-.14-.32-.07-.07-.2-.09-.31-.12-.02 0-.06 0-.07-.02-.06-.04.02-.12.36-.37l.23-.17c.26-.19.5-.32.62-.31.36.02.52.21.58.45.05.17.06.35.08.53h-.04Z"/><path fill="#231F20" d="M238.23 288.51c0-1.11-.07-2.21-.36-3.2-.11-.36-.29-.68-.45-1-.54-1.13-1.57-1.91-2.97-2.24-.62-.12-1.3-.08-1.97-.07-.85 0-1.77.15-2.62-.29-.26-.12-.22-.12.02-.2.12-.04.29-.12.48-.22.1-.05.2-.12.31-.16.11-.03.22-.05.34-.06.84-.09 1.7-.25 2.62-.32.91-.03 2.01-.11 2.98.37 1.13.59 2.16 1.54 2.72 2.64.62 1.22.87 2.49 1.01 3.73.09.76.11 1.52.11 2.28 0 1.14-.08 2.27-.08 3.38 0 .86.1 1.71.12 2.55 0 .18.03.36.03.55 0 .68-.14.88-.64 1.05-.11.04-.23.09-.34.11-.38.09-.72-.2-.87-.73-.22-.79-.35-1.58-.44-2.38-.07-.79-.04-1.58-.04-2.36.02-1.16.02-2.3-.02-3.42h.06v-.01Z"/><path fill="#231F20" d="M145.46 224.67a205.84 205.84 0 0 0-16.21 14.2c-1.85 1.86-3.68 3.74-5.46 5.67-6.4 6.68-12.38 13.79-17.94 21.21-1.26 1.63-2.45 3.32-3.61 5.02l-1.75 2.55c-.56.86-1.11 1.73-1.66 2.59-2.9 4.39-5.35 9.05-8.49 13.31-1.07 1.28-1.03 1.05-.73-.37.22-1.47.9-4.05 2.38-6.72 1.3-2.38 2.68-4.71 4.13-7l2.17-3.44 2.27-3.38c1.5-2.27 3.14-4.43 4.75-6.63 1.66-2.16 3.41-4.26 5.16-6.35 4.25-4.96 8.61-10.18 13.23-15.01 5.1-5.29 10.52-10.27 16.16-14.98 1.74-1.44 3.48-2.89 5.29-4.24l2.69-2.07c.9-.69 1.83-1.33 2.74-1.99 2.75-2.04 5.63-3.9 8.48-5.8 2.86-1.84 5.73-3.69 8.65-5.44 4.55-2.7 9.13-5.28 14.27-6.9.57-.17 1.12-.36 1.69-.52.58-.14 1.15-.27 1.74-.41 1.09-.22 2.03-.3 2.8-.38.79-.01 1.42.02 1.94.08 1.04.14 1.63.49 2.07.91.2.2.46.39.56.58.17.32-.19.59-.94.8-.38.11-.85.18-1.42.28-.57.13-1.22.23-1.95.32-2.17.36-4.33.94-6.47 1.68-2.14.77-4.26 1.7-6.36 2.72-4.2 2.09-8.3 4.6-12.4 7.26-6.1 3.95-12.08 7.98-17.73 12.53l-.06-.05.01-.03Zm18.01 79.07c1.05 1.28 2.13 2.5 3.24 3.66 1.12 1.13 2.24 2.07 3.6 2.85 2.7 1.59 5.82 2.71 8.96 3.63 2.31.66 4.68 1.13 7.05 1.6 8.37 1.65 16.96 2.44 25.55 2.6 3.81.07 7.65-.09 11.43-.32 4.86-.31 9.66-1.04 14.56-1.2 1.56.12 1.35.06.15.71-1.18.76-3.45 1.76-6.27 2.27-9.99 1.59-20.16 1.61-30.27.64-6.04-.6-12.35-1.19-18.46-2.53-3.35-.75-6.68-1.68-9.92-2.96-1.61-.66-3.2-1.42-4.73-2.35l-1.12-.74-1.08-.84c-.64-.61-1.32-1.2-1.91-1.84-2.93-3.1-5.49-6.42-8.01-9.77-3.78-5.1-7.3-10.41-10.6-15.78-2.57-4.17-5.09-8.27-7.18-12.71-.48-.96-.88-1.96-1.3-2.97-.41-.93-.61-1.77-.81-2.46-.17-.7-.33-1.25-.35-1.74 0-1 .14-1.58.42-2.06.13-.22.25-.49.39-.61.24-.21.54.07.89.71.35.65.71 1.63 1.23 2.94 3.04 7.72 7.82 15.43 12.72 22.97 3.7 5.57 7.58 11.12 11.86 16.23l-.05.05.01.02Z" opacity=".25"/><path fill="#231F20" d="M197.62 274.22c-1.59-.52-3.69-.68-5.86-1.16-.79-.19-1.63-.36-2.4-.77-1.38-.7-2.48-1.77-3.3-2.92-.84-1.16-1.4-2.44-1.87-3.71-.42-1.13-.74-2.27-1.05-3.39-.41-1.43-.77-2.87-1.23-4.28-.14-.44-.08-.41.18-.09.25.32.73.91 1.13 1.7.69 1.39 1.27 2.82 1.9 4.16.56 1.38 1.18 2.65 1.94 3.84.89 1.45 2.31 2.49 3.87 2.9 1.74.53 3.8.46 5.96.8 1.32.22 2.74.65 3.94 1.54.99.77 1.49 1.76 1.93 2.67.43.92.77 1.82 1.17 2.66.61 1.31 1.46 2.44 2.42 3.06.2.17.44.22.64.34.79.34 1.02.53 1.13 1.37.02.19.08.38.09.56.02.31-.1.56-.39.73-.29.15-.76.32-1.31.15-1.71-.35-3.18-1.68-4.01-3.01-.87-1.34-1.4-2.72-1.92-3.92-.38-.88-.78-1.7-1.15-2.14-.1-.09-.16-.16-.28-.26-.16-.09-.28-.21-.46-.29-.32-.18-.68-.34-1.08-.45l.02-.07-.01-.02Zm-55.97 5.24-2.61-4.76c-.32-.58-.68-1.13-.99-1.72-1.08-2.07-2.14-4.15-3.08-6.29-.44-.94-.88-1.88-1.32-2.81-.57-1.19-1-2.45-1.36-3.72-.11-.4.02-.39.3-.13.28.26.76.75 1.15 1.39.74 1.12 1.33 2.31 1.95 3.48.61 1.18 1.25 2.34 1.81 3.56.67 1.46 1.61 2.85 2.44 4.27l2.79 4.67 1.74 2.87c.9 1.44 1.72 2.93 2.63 4.35.7 1.11 1.48 2.13 2.22 3.21.17.23.32.47.47.72.53.93.57 1.3.25 1.74-.07.1-.14.22-.22.3-.28.27-.78.06-1.29-.54-1.55-1.75-2.8-3.81-4.12-5.86-.98-1.52-1.86-3.12-2.78-4.69l.04-.03-.02-.01Zm33.93-77.51s9.22-2.94 13.78-1.94c5.61 1.23 15.35 11.08 24.67 14.12 10.54 3.44 18.67 0 18.67 0s-18.51-2.69-22.36-4.65c-4.07-2.07-15-10.47-15-10.47l-3.45-5.82-7.86 3.36-8.46 5.4h.01Zm84.03-13.12c-.16.57-.31 1.13-.44 1.69-.05.2-.06.42-.1.62-.16.72-.36 1.43-.4 2.15-.02.32.02.63.08.93.13.35.26.7.54.93.07.09.02.2-.14.25-.15.04-.51.04-.7-.22-.71-.88-.73-1.89-.66-2.78.06-.54.03-1.1.1-1.63.07-.59.17-1.17.27-1.75.06-.36.12-.71.18-1.06.08-.54.18-1.07.2-1.61.03-.42-.06-.82-.12-1.23 0-.09-.04-.17-.05-.26-.04-.32.14-.43.53-.51l.27-.06c.3-.04.57.09.71.36.28.8.29 1.63.15 2.43-.1.59-.25 1.18-.37 1.75h-.05Zm-78.69-9.27c-2.05 3.74-19.25 7.65-24.55-4.66-6.21-14.43 7.03-18.05 7.03-18.05s-8.63-6.93-7.03-14.59c1.6-7.66 7.66-15.36 10.51-16.44 2.85-1.08 14.69-1.14 14.69-1.14l6.42 4.03s-1.08-12.05 3.69-17.21 10.63-9.99 16.57-9.92c5.94.07 17.23 3.69 17.23 3.69l7.23 8.48s9.27-6.07 17.53-6.28c8.26-.21 18.57 3.98 21.6 8.67 3.03 4.68 6.37 13.57 5.09 16.54-1.28 2.97-4.28 15.69-12.63 16.88-8.35 1.19-18.79-3.65-18.79-3.65l-5.57-3.11s-1.65 9-5.25 10.68c-3.6 1.67-7.81 1.6-9.21.55-1.4-1.05-11.61-8.11-11.61-8.11s-6.93 7.22-7.59 9.08c-.66 1.86-2.43 12.75-4.76 12.87-2.33.12-5.5 1-5.5 1s-8.2-8.66-11.18-7.85c-2.98.81-6.24 2.16-6.95 5.27-.71 3.11-.52 5.3-.25 6.15.27.85 3.28 7.13 3.28 7.13v-.01ZM43.94 422.18c-2.47.07-4.94.23-7.18.79-1.12.28-2.18.67-3.05 1.22-.88.55-1.48 1.31-1.82 2.16-.15.3-.2.66-.27 1-.03.17.03.16 0 .25 0 .06.07.09.06.14.06.21.56.65 1.21 1 1.15.65 2.66 1.11 4.17 1.48 1.52.36 3.09.65 4.68.88 3.18.46 6.42.73 9.67.94 2.88.21 5.79.27 8.67.28 3.69 0 7.42-.16 11.12.91 1.15.4.99.25 0 .57-.99.39-2.79 1.3-4.92 1.57-.94.07-1.89.19-2.84.2l-2.84.04c-1.9.01-3.8 0-5.71-.04-3.82-.05-7.65-.43-11.49-1.02-2.3-.37-4.65-.69-7.04-1.21-1.19-.25-2.4-.59-3.61-1.03l-.91-.38-.91-.49c-.31-.19-.61-.42-.91-.64-.29-.28-.59-.55-.85-.9-.62-.78-.86-1.97-.68-2.97l.32-1.13c.15-.36.32-.72.49-1.08.76-1.41 2-2.43 3.24-3.17 2.55-1.45 5.26-1.83 7.87-2.14 3.23-.32 6.42-.28 9.57-.31 2.38-.02 4.77 0 7.04-.31 1.11-.15 2.25-.42 2.93-.93.18-.11.3-.32.46-.46l.45-.66c.29-.49.57-.98.84-1.51 1.69-3.23 3.21-6.76 6.21-9.51.34-.29.66-.6 1.02-.86.37-.25.75-.5 1.15-.74.77-.38 1.44-.65 2.02-.81a8.42 8.42 0 0 1 1.47-.18c.8.04 1.27.32 1.62.72.16.19.36.37.44.56.14.32-.1.64-.58.93-.24.14-.54.27-.89.39-.34.18-.72.35-1.16.5-2.51 1.15-4.45 3.34-6.09 6.06-.83 1.35-1.58 2.8-2.41 4.34-.22.39-.41.77-.66 1.19l-.36.62-.46.66c-.12.2-.39.49-.62.73-.22.26-.51.48-.81.68-.31.23-.58.34-.86.48-.29.15-.55.23-.82.32-1.57.51-2.95.63-4.32.74-1.36.09-2.67.11-3.98.12-2.6.02-5.15-.03-7.65.07v-.08l-.02.02Zm189.05-23.73c-.94-7.16-3.75-14.15-7.14-20.77-1.24-2.43-2.67-4.75-4.07-7.1-4.93-8.29-10.6-16.2-16.47-23.95-2.61-3.44-5.34-6.82-8.01-10.19-1.72-2.16-3.46-4.31-5.13-6.52-.42-.56-.84-1.1-1.24-1.67l-1.1-1.78c-.72-1.2-1.37-2.43-2-3.68-.73-1.59-.54-1.43.63-.46 1.09 1.02 3.55 2.53 5.56 4.94 3.49 4.4 6.97 8.79 10.46 13.2 3.46 4.46 6.86 9 10.09 13.71 3.87 5.62 8.05 11.38 11.59 17.45 3.86 6.67 7.24 13.73 9.19 21.32 1.16 4.67 1.7 9.56 1.18 14.41-.91 7.32-4.25 14.34-9.51 19.48-4.05 3.99-9.2 6.89-14.91 7.9-1.26.18-2.49.43-3.78.41-4.78-.08-6.2-.96-6.9-2.14-.16-.26-.39-.52-.47-.73-.12-.36.3-.57 1.15-.76.43-.11.94-.13 1.53-.11.59.06 1.29-.04 2.05 0 2.27.06 4.53-.21 6.75-.66 1.09-.3 2.21-.53 3.26-.98 1.09-.34 2.1-.89 3.13-1.38 1.98-1.13 3.94-2.39 5.58-4.05l.64-.59.58-.65 1.17-1.31 1.04-1.42c.17-.24.35-.47.52-.71l.45-.76c1.84-2.97 3.16-6.32 3.87-9.8.69-3.45.7-7.06.19-10.65l.08-.02.04.02Zm56.92-122.17c.38.53.76 1.05 1.16 1.56.15.18.35.31.49.5.5.68 1.02 1.35 1.49 2.07.22.31.48.57.74.83.16.17.35.31.49.51.13.21.23.44.31.69.05.16-.12.3-.41.41-.28.11-.73.25-1.02.19-.48-.16-.84-.44-1.23-.7-.37-.27-.74-.56-1.01-.96-.31-.5-.86-.76-1.29-1.15-.47-.43-.93-.88-1.39-1.34l-.85-.84c-.44-.41-.83-.88-1.32-1.25-.38-.28-.88-.42-1.33-.63-.1-.04-.22-.07-.31-.13-.29-.26-.21-.51.36-1.2l.38-.45c.43-.48.97-.81 1.32-.78 1.01.08 1.6.63 2.21 1.2.45.42.82.95 1.24 1.43l-.05.06.02-.02Zm-25.64-22.74c-.73-.93-1.48-1.85-2.26-2.75-.28-.33-.62-.59-.91-.92-.99-1.16-1.95-2.38-3-3.48-.47-.49-.98-.94-1.49-1.36-.63-.57-1.37-1.07-1.81-1.74-.12-.2-.1-.38.24-.51.39-.12 1.01-.25 1.47.02.83.42 1.59.91 2.28 1.47.71.55 1.37 1.15 1.98 1.81.73.8 1.68 1.4 2.47 2.15.88.82 1.73 1.68 2.58 2.54l1.55 1.6c.79.8 1.53 1.66 2.35 2.43.63.61 1.4 1.05 2.1 1.62.16.12.33.22.48.36.51.56.43.93-.18 1.58-.14.15-.27.31-.42.45-.51.46-1.14.59-1.64.39-1.39-.68-2.45-1.77-3.55-2.91-.79-.86-1.52-1.8-2.31-2.69l.05-.06h.02Z"/><path fill="#231F20" d="M261.28 264.47c1.35-1.8 2.7-3.59 4.4-5.3.46-.43.9-.86 1.51-1.27.23-.2.74-.43 1.13-.6.38-.14.61-.18.92-.27 1.16-.29 2.31-.48 3.45-.63 1.67-.21 3.34-.41 5.05-.35 1.51.05 3.03.2 4.6.66.77.25 1.66.61 2.34 1.18.69.53 1.24 1.13 1.73 1.75.98 1.23 1.67 2.6 2.25 3.99.55 1.41.98 2.86 1.11 4.43.03.7.06 1.41-.11 2.15-.05.37-.21.74-.36 1.11-.16.33-.32.6-.49.89-.35.58-.69 1.08-1.13 1.67-.59.74-1.2 1.47-1.85 1.99l-.87.71-.24.18-.12.09h-.07l-.28.03-.25-1.73c-.09-.59-.16-1.18-.29-1.7-.03-.14-.05-.27-.1-.4l-.07-.24-.14-.45-.32-.92c-.22-.62-.39-1.28-.57-1.93l-.24-.99c-.01-.35-.05-.69-.07-1.04-.03-1.04-.09-.88.44-.16.61.71 1.76 1.87 2.58 3.56.13.29.26.6.38.91l.18.48c.05.12.02.08.03.08v.02l.06-.09.12-.19c.33-.5.63-1.03.9-1.56.17-.31.14-.4.23-.58.01-.22.09-.4.07-.66.03-.97-.22-2.14-.61-3.26-.39-1.13-.91-2.24-1.52-3.27-.46-.76-.96-1.5-1.56-2.09-.62-.62-1.15-.92-1.99-1.15-1.67-.45-3.66-.46-5.57-.39-2.11.1-4.27.37-6.26.91-.11.03-.27.07-.34.1-.06.04-.12.07-.19.1l-.1.04-.13.1-.27.2c-.18.11-.37.3-.55.46-.19.16-.37.33-.55.53-.74.73-1.44 1.57-2.13 2.4-1.69 2.08-3.29 4.29-4.86 6.52l-1.8 2.55c-.31.43-.62.85-.98 1.3l-1.03 1.19c-.7.79-1.45 1.58-2.34 2.28-.9.69-1.93 1.22-2.96 1.58-1.62.57-3.17.87-4.69 1.29-1.53.39-3.08.79-4.66 1.11-.7.14-1.38.29-2.1.39-2.66.37-3.57.06-4.13-.68-.13-.17-.29-.34-.37-.51-.23-.55.81-1.05 2.61-1.35 2.69-.45 5.42-1.11 8.27-1.78.71-.17 1.43-.33 2.14-.5.68-.16 1.33-.33 1.94-.54 1.23-.41 2.11-.96 3.02-1.89.68-.68 1.36-1.51 2.05-2.36.54-.7 1.2-1.68 1.81-2.58 1.24-1.84 2.5-3.7 3.82-5.54l.06.04.06-.02Zm-1.09-70.91c.56-.27 1.07-.71 1.45-1.19 0-.03.02-.03.03-.05.03-.03.02-.08.03-.12 0-.05-.01-.2.01-.31.04-.98 0-2.29-.23-3.5-.11-.54-.28-1.07-.41-1.62-.17-.69-.49-1.35-.3-2.21.05-.26.23-.24.54-.13.21.08.42.15.59.22.24.08.45.2.56.38.4.61.85 1.22 1.15 1.9.26.69.46 1.43.56 2.21.11.94.5 1.83.48 3.05-.02.48-.14 1-.36 1.43-.42.77-.96 1.38-1.58 1.93-.56.47-1.18.83-1.8 1.14-.96.46-1.97.65-2.94.87-.75.17-1.49.45-2.28.59-.17.03-.34.1-.52.08-.65-.02-.83-.29-.86-1.12 0-.19-.02-.38-.02-.57.03-.63.32-1.13.7-1.33 1.14-.6 2.18-.68 3.17-.97.72-.21 1.41-.4 1.99-.75l.05.06-.01.01Zm-65.1-88.89c1.55-1.2 3.32-2.08 5.12-2.84.92-.3 1.87-.65 2.78-.86.92-.19 1.82-.46 2.75-.57.68-.1 1.34-.25 2.02-.34.68-.08 1.36-.16 2.04-.2 2.42-.06 4.84.11 7.21.58 2.36.52 4.66 1.31 6.81 2.43 1.9 1 3.66 2.28 5.25 3.72.47.5.98.97 1.43 1.5.41.56.81 1.12 1.2 1.69.18.29.33.61.49.91l.31 1c.22.65.14 1.43.28 2.07.2.8.05.72-.46.2-.25-.26-.73-.58-1.32-.91-.3-.17-.6-.34-.91-.52-.16-.09-.29-.19-.48-.27-.1-.13-.21-.25-.31-.38-.34-.48-.79-.88-1.16-1.32-.19-.22-.39-.43-.63-.61l-.61-.62c-.83-.8-1.73-1.54-2.71-2.17-1.96-1.26-4.1-2.37-6.46-3.13-2.83-.93-6.03-.9-9.09-.61-1.69.15-3.37.48-5.03.88-.79.25-1.59.47-2.36.79-.75.35-1.54.65-2.24 1.11-.91.48-1.73 1.12-2.57 1.74-.77.69-1.58 1.36-2.24 2.17-2.09 2.35-3.79 5.18-4.54 8.26-.63 2.38-.56 4.83-.17 7.15.05.52.21 1.01.34 1.51.11.47.18.87.23 1.2.08.33.12.6.11.84-.05.49-.23.84-.54 1.19-.14.16-.26.35-.41.47-.24.2-.55.15-.91-.14-.36-.29-.83-.81-1.16-1.58-.9-2.3-1.34-4.89-1.24-7.5.07-2.63.78-5.24 1.83-7.67.75-1.83 1.85-3.49 3.02-5.08 1.28-1.51 2.65-2.96 4.25-4.13l.06.07.02-.03Z"/><path fill="#231F20" d="M155.47 135.2c.28-.87.76-1.68 1.16-2.5.47-.79.98-1.57 1.53-2.3 1.13-1.43 2.45-2.7 3.9-3.76 1.05-.78 2.13-1.54 3.31-2.09 4.17-1.93 8.83-2.57 13.25-1.79 1.96.34 3.91.87 5.72 1.72 1.14.59 2.3 1.23 3.19 2.2.43.49.81 1.04 1.09 1.64.3.57.54 1.18.7 1.8.23.74.17.64-.35.22-.24-.22-.73-.43-1.25-.65-.26-.11-.58-.2-.88-.3-.15-.05-.29-.11-.48-.12-.13-.08-.29-.12-.42-.19-1.91-.95-3.68-1.91-5.77-2.46-2.07-.53-4.26-.76-6.51-.79-2.72 0-5.45 1.03-7.83 2.38-2.62 1.48-4.95 3.63-6.36 6.32-.93 1.63-1.49 3.48-1.79 5.37-.43 2.86-.3 5.9.69 8.63.75 2.12 2.04 3.96 3.6 5.38.36.29.7.59 1.07.86.66.52 1.04.96 1.33 1.26.26.35.36.7.38 1.12.01.19.06.4.04.57-.02.29-.25.44-.68.48-.42.02-1.12.02-1.85-.33-.52-.27-1.13-.48-1.61-.85-.47-.37-.96-.76-1.42-1.16-.42-.44-.83-.9-1.25-1.36-.38-.48-.71-1-1.07-1.51-1.3-2.1-2.12-4.49-2.53-6.92-.35-1.81-.33-3.66-.22-5.49.23-1.82.53-3.66 1.22-5.39l.08.02.01-.01Zm81.19 36.54-7.73-3.02c-.94-.36-1.92-.64-2.86-1.01l-9.93-3.98c-1.46-.61-2.95-1.16-4.43-1.68-.94-.35-1.92-.64-2.84-1.04-.92-.42-1.82-.89-2.66-1.51-.53-.38-.37-.55.27-.74.32-.09.77-.21 1.29-.32.52-.08 1.08-.08 1.66.03.25.06.51.1.76.16l.73.23 1.46.47 2.91.98c1.94.65 3.83 1.48 5.72 2.33 2.26 1.03 4.74 1.73 7.12 2.59l7.85 2.89 4.83 1.79c2.44.89 4.88 1.84 7.32 2.67 1.9.65 3.83 1.1 5.74 1.67.42.12.85.21 1.26.36 1.55.53 1.96.93 1.96 1.88 0 .22.03.44 0 .65-.1.69-.93.98-2.11.74-3.5-.71-7-1.92-10.53-3.16-2.61-.93-5.21-1.95-7.83-2.9l.02-.08h.02Zm-95.23 53.31c-6.09 5.07-12.01 10.39-17.46 16.2-2.04 2.07-3.84 4.35-5.82 6.47a228.587 228.587 0 0 0-18.76 24.34c-2.52 3.79-4.94 7.69-7.15 11.63-1.46 2.51-2.79 5.1-4.24 7.63l-1.08 1.9-1.04 1.92c-.69 1.28-1.48 2.51-2.24 3.76-1.02 1.52-1.08 1.23-.8-.35.3-1.57.83-4.48 2.28-7.54 1.3-2.7 2.51-5.46 4.05-8.04 1.47-2.62 2.92-5.25 4.53-7.79l2.37-3.84c.83-1.25 1.67-2.51 2.53-3.75 1.69-2.5 3.52-4.9 5.36-7.31 1.08-1.45 2.21-2.89 3.35-4.33 1.14-1.44 2.23-2.94 3.4-4.38 2.35-2.87 4.65-5.81 7.16-8.54 2.66-3.08 5.54-5.96 8.37-8.88l4.4-4.23c1.46-1.42 3.02-2.72 4.53-4.09 1.84-1.7 3.8-3.26 5.74-4.85.97-.79 1.93-1.6 2.91-2.36l2.99-2.26c2.98-2.35 6.17-4.42 9.27-6.59 1.6-1.02 3.2-2.03 4.79-3.05 1.58-1.02 3.2-2.04 4.87-2.94 5.15-2.83 10.28-5.4 15.55-7.76 1.16-.52 2.29-1.05 3.48-1.54 4.41-1.8 5.94-2.07 7.22-1.52.29.13.65.23.85.39.67.55-.94 1.73-4.06 3.17-4.64 2.14-9.39 4.36-14.14 6.66-2.37 1.16-4.75 2.35-7.05 3.61-1.16.65-2.27 1.27-3.39 1.99l-3.38 2.17c-6.68 4.33-13.22 8.98-19.31 14.16l-.06-.06h-.02Zm139.13 53.59c-.14.16.69-.36 1.16-.77.52-.44.99-.94 1.36-1.48.29-.39.42-.83.58-1.22l.12-.36c.02-.11.04-.24.07-.33v-.25c-.04-.18-.07-.36-.12-.55-.09-.38-.2-.77-.32-1.16-.24-.78-.52-1.55-.83-2.31-.35-.81-.75-1.6-1.18-2.36-.28-.48-.59-.95-.89-1.4-.27-.48-.48-1.03-.81-1.48-.18-.3-.09-.37.28-.32.18.03.47.07.76.17.3.09.68.21.99.42.94.88 1.67 1.89 2.34 2.92.59 1.08 1.07 2.2 1.44 3.38.13.43.28.85.43 1.28l.23.68.13.45c.03.18.05.36.07.54-.02.82-.22 1.52-.51 2.16-.83 1.71-2.09 2.97-3.53 3.98-.18.12-.57.38-.88.53-.33.14-.65.35-.98.43-.65.24-1.27.29-1.84.23l-.31-.09c-.04-.13-.13-.16-.16-.25-.09-.14-.17-.3-.21-.52-.1-.41-.06-.98-.02-1.52.11-1.22.13-1.79.12-2.53 0-.28-.02-.55-.06-.8-.03-.26-.09-.46-.18-.72-.16-.48-.37-.94-.62-1.35-.11-.18-.24-.34-.36-.5-.43-.6-.46-.83-.1-1.46.08-.14.15-.3.24-.43.28-.46.94-.53 1.57.07.93.88 1.51 2.07 1.8 3.29.07.28.14.7.15 1 .02.32.03.61.03.9v.85l-.05.71c0-.03-.09.12.02.1v.07h.07Zm13.6 6.09c.31-.8.65-1.6 1.03-2.4l.16-.33c.07-.17.17-.33.26-.49.19-.31.36-.64.55-.92.19-.29.37-.59.59-.79.2-.24.41-.43.62-.61.6-.47 1.23-.88 2.04-.6.62.23.87.71 1.12 1.39.24.68.3 1.62.3 2.51v.66l-.05.48-.07.82-.16 1.62c-.1.95-.16 1.91-.23 2.85-.04.61-.07 1.21-.17 1.81-.06.3-.07.6-.19.9-.13.29-.26.57-.39.87-.19.36-.23.29-.41-.05-.09-.17-.23-.41-.4-.71-.08-.15-.2-.3-.26-.47-.04-.16-.07-.33-.08-.5-.09-1.23.03-2.43.06-3.64.06-1.21.13-2.42.22-3.61v-.13l.02-.04.02-.08.03-.18c0-.13 0-.26-.01-.38-.02-.12-.04-.24-.09-.35-.04-.13-.2-.17-.3-.11-.22.1-.38.32-.56.58-.09.07-.55 1.05-.83 1.74-.38.92-.73 1.87-1.04 2.83-.46 1.46-.89 2.94-1.15 4.44-.19 1.17-.22 2.33-.24 3.47v.74c.02.91-.27 1.16-.81 1.41-.13.06-.25.13-.38.17-.4.15-.86-.25-1.1-1.05-.42-2.32-.14-4.63.37-6.89.38-1.68.88-3.33 1.45-4.97l.06.02.02-.01Z"/><path fill="#231F20" d="M298.98 281.53c.1-.39.21-.77.32-1.16l.21-.68c.11-.33.2-.65.32-.97.45-1.31 1.05-2.4 1.69-2.94.46-.45.92-.86 1.54-.92l.37-.04.21.03c.06.12.12.09.16.14.08.06.14.12.2.19.12.13.23.25.35.41.23.3.41.89.5 1.64.08.75.1 1.57.12 2.33 0 .37.01.79 0 1.09l-.02.71c-.04.89-.02 1.78-.03 2.66v.85c-.03.28-.08.57-.13.85-.15.56-.4 1.12-.61 1.66-.16.33-.14.28-.23-.03-.05-.15-.14-.37-.27-.64-.13-.26-.32-.56-.46-.88-.16-.56-.26-1.11-.26-1.67l-.07-1.67c-.02-.56-.05-1.11-.05-1.67 0-.2.02-.12.03-.17l.04-.09c.03-.07.06-.15.08-.26.05-.21.06-.44.05-.63 0-.1-.02-.19-.04-.28-.02-.06-.03-.23-.14-.16-.1 0-.18.07-.25.11-.17.13-.3.32-.42.56a5.2 5.2 0 0 0-.18.4l-.1.25-.16.54c-.25.89-.48 1.8-.66 2.72-.27 1.39-.53 2.81-.65 4.22-.09 1.1 0 2.19.03 3.28 0 .24.04.48.04.72-.02.89-.18 1.16-.89 1.33-.16.04-.31.09-.45.11-.48.07-.97-.32-1.07-1.01-.35-2.02-.24-4.13.01-6.24.19-1.57.48-3.13.84-4.71h.06l-.03.02Z"/><path fill="#231F20" d="M304.43 299.28c1.63-2.79 2.6-6.29 3.28-9.74.24-1.27.36-2.57.53-3.85.26-1.98.49-3.97.56-5.95.02-.5.02-.99.02-1.48v-.51l-.02-.31a3.87 3.87 0 0 0-.09-.66c-.05-.2-.14-.53-.4-.5-.26.03-.46.23-.61.45-.14.19-.25.41-.34.64l-.07.18-.08.23c-.07.24-.16.47-.22.71-.29.96-.53 1.95-.72 2.94-.43 2.57-.9 5.15-1.67 7.73-.42.79-.32.69-.63-.04-.17-.37-.32-.89-.49-1.52-.08-.31-.17-.66-.23-1.02-.04-.18-.05-.37-.1-.56v-.58c0-2.14.35-4.24.86-6.37.13-.53.26-1.07.45-1.6l.32-.87c.18-.5.4-.92.61-1.37.45-.86.98-1.55 1.55-1.98.57-.44 1.16-.63 1.89-.66.21.02.43.07.64.12.2.09.36.18.5.3.28.25.52.55.72.94.4.78.6 1.9.69 3 .09.83.07 1.14.08 1.59l.02 1.29c0 .86 0 1.72-.03 2.57-.04 1.72-.15 3.44-.39 5.13-.53 3.71-1.33 7.41-2.8 10.97-.46 1.09-1 2.17-1.69 3.19-.34.5-.75 1.03-1.16 1.44-.41.42-.79.87-1.23 1.26-2.56 2.49-5.62 4.35-8.67 5.97-2.38 1.26-4.72 2.47-7.12 3.57-.53.24-1.03.5-1.58.71-2.01.79-2.72.81-3.45.2-.17-.14-.36-.27-.49-.42-.42-.52.22-1.33 1.61-2.09 4.13-2.25 8.64-3.96 12.58-6.44 1.46-.91 2.86-1.91 4.14-3.02.63-.57 1.25-1.15 1.82-1.78.32-.32.5-.55.74-.87.22-.3.43-.63.63-.98l.07.03-.03.01Zm-74.45-71.09c-.35-.75-.7-1.49-1.06-2.21-.18-.36-.36-.71-.54-1.02-.09-.16-.18-.3-.24-.39l-.03-.05s-.02 0 .06-.07c.11-.1.22-.21.32-.32.11-.13.18-.2.25-.29.07-.1.12-.19.15-.24.07-.18.03-.18.05-.17l.03.14s.05.09.34.15c.11.02.31.06.49.06h.34c0 .04.02.19.05.33.07.3.18.65.32 1 .3.78.71 1.55 1.08 2.35 1.3 2.82 2.86 5.61 4.63 8.22.79 1.16 1.63 2.29 2.54 3.33 1.19 1.32 2.24 2.77 3.54 4 .4.38.27.47-.26.37-.52-.1-1.47-.38-2.41-.96-.41-.27-.81-.55-1.2-.83l-.59-.43-.51-.5c-.68-.68-1.32-1.38-1.93-2.11-1.23-1.46-2.23-3.08-3.17-4.74-1.1-1.99-2.44-3.94-3.47-6.07-.32-.65-.59-1.32-.84-2.04-.12-.36-.23-.73-.32-1.16-.04-.22-.08-.44-.07-.77 0-.16.02-.36.1-.61.09-.27.33-.67.78-.86l-.23.14c.15-.11.33-.19.51-.23.16-.03.32-.03.48 0 .17.03.19.06.3.1.08.04.17.09.2.11.19.13.28.23.36.32.15.18.25.32.34.46.18.28.33.54.47.81.28.52.53 1.04.77 1.55l1.94 4.22c.99 2.11 1.97 4.24 3.11 6.24.89 1.55 1.93 2.97 3.02 4.28.24.29.5.55.74.82.92 1.01 1.11 1.27 1.01 1.96-.02.15-.02.32-.05.46-.07.49-.96.5-1.92-.26-1.4-1.11-2.48-2.47-3.46-3.87-.98-1.41-1.84-2.9-2.66-4.41-1.21-2.23-2.29-4.53-3.4-6.77l.06-.03-.02-.01Zm-25.19 19.74c.03-.98.07-1.96.15-2.96.04-.5.09-1 .19-1.54.05-.27.1-.54.2-.87.05-.16.1-.36.28-.66.07-.11.12-.19.24-.31a1.434 1.434 0 0 1 1.66-.3c.21.11.3.19.44.32l-1.67-.15c.16-.11.36-.19.55-.24.27-.06.68 0 .87.11.1.05.2.11.29.18.09.07.17.16.19.19.07.09.13.18.19.27.12.25.16.41.19.55.06.27.07.45.09.66.03.39.03.74.03 1.09 0 .99.02 1.94-.03 2.89-.21 3.35-.45 6.66-.61 9.97-.07 1.47-.06 2.95 0 4.4.05.93.09 1.86.14 2.79.07.93.12 1.84.2 2.76.07.57 0 .54-.34.12-.17-.21-.4-.53-.66-.93-.23-.41-.42-.91-.54-1.46-.46-1.95-.56-3.9-.62-5.85-.05-1.95-.04-3.89.12-5.83.17-2.32.12-4.74.14-7.09 0-.62 0-1.23-.01-1.83 0-.3-.02-.59-.05-.86-.01-.13-.03-.25-.05-.33 0-.01-.03-.01.02-.04.18-.04.4-.16.53-.22a.61.61 0 0 0 .16-.12c.03-.01.05-.04.06-.08v.02c0 .04.03.08.05.1l-.43.11c.1-.06.16-.21.17-.22 0-.05 0 0 .07.08.02.01.09.08.15.13.07.05.11.06.22.12.09.05.21.11.27.14a2.4 2.4 0 0 0-.09.32c-.06.28-.1.59-.13.91-.07.64-.12 1.31-.16 1.97a83.95 83.95 0 0 0-.1 4.77c.03 2.42.09 4.85.32 7.24.18 1.86.53 3.66.9 5.44l.27 1.16c.32 1.44.32 1.87-.15 2.36-.1.11-.2.25-.31.34-.36.32-1-.2-1.39-1.32-1.13-3.3-1.52-6.83-1.79-10.37-.19-2.63-.25-5.28-.24-7.94h.06l-.04.01ZM97.73 441.77c-6.42-.79-12.79-1.67-19.2-3.07l-1.22-.29-.62-.16c-.12-.04-.18-.04-.36-.09-.18-.05-.36-.1-.54-.16-.72-.23-1.3-.65-1.69-1.24-.18-.32-.37-.6-.48-.98l-.15-.54a3.15 3.15 0 0 1-.09-.36c-.36-1.84-.43-3.48-.5-5.14-.1-3.31.11-6.55.34-9.79.49-6.47 1.29-12.89 2.44-19.3.6-3.2 1.25-6.4 2.25-9.61.26-.81.53-1.61.88-2.43.34-.82.74-1.65 1.41-2.55.2-.23.4-.47.61-.68l.69-.52.35-.25.35-.18.71-.34c.47-.2.92-.32 1.39-.48.45-.12.9-.2 1.35-.3 2.59-.44 5.03-.41 7.44-.31 2.41.12 4.78.34 7.13.62 4.7.56 9.34 1.29 13.95 2 3.41.53 6.82 1.04 10.19 1.48.84.1 1.69.21 2.53.28.42.04.84.09 1.26.11l.54.04c.06 0 .12 0 .18.02.49.02 1 .04 1.52-.03.25-.03.5-.08.74-.17.05-.02.15-.03.13-.1-.03-.05-.08-.08-.13-.12-.1-.06-.2-.12-.31-.17-.42-.2-.88-.39-1.34-.59l-3.4-1.42c-1.51-.64-3.02-1.28-4.52-1.95-6-2.67-11.89-5.65-17.49-9.17-5.58-3.52-10.92-7.61-15.21-12.81-2.13-2.6-3.97-5.49-5.25-8.65-.64-1.56-1.14-3.27-1.44-4.87l-.52-2.43-.41-2.45c-.3-1.58-.4-3.19-.59-4.78-.07-1.61-.23-3.21-.19-4.83-.04-1.61.09-3.23.19-4.84l.29-2.41c.09-.8.28-1.6.41-2.4 1.27-6.34 3.92-12.55 8.68-17.29.32-.21.63-.49.98-.62s.67-.25.96-.29c.6-.14 1.14-.17 1.69-.23 1.07-.05 2.12-.06 3.14-.02 4.76.2 9.4.77 14.05 1.31l13.91 1.67c4.63.58 9.26 1.03 13.89 1.53 2.31.25 4.62.48 6.94.65 2.31.19 4.63.39 6.95.46 5.78.12 5.05.23.13.87-2.46.26-5.99.71-10.26.82-2.13.06-4.46.14-6.92.06-2.46-.1-5.05-.29-7.74-.55-6.25-.58-12.46-1.41-18.64-2.16-3.09-.37-6.18-.73-9.23-.98-1.52-.12-3.05-.22-4.51-.23-.73 0-1.44.02-2.07.09-.17 0-.31.04-.43.06-.12.03-.29.04-.36.07-.07.03-.11.04-.12.04l-.69.73c-.25.26-.5.52-.72.82-.46.57-.93 1.12-1.33 1.75l-.63.91-.56.96c-.39.63-.72 1.3-1.04 1.97-1.29 2.69-2.19 5.59-2.77 8.58-1.15 5.98-1.02 12.25-.03 18.4.2 1.54.57 3.07.88 4.6.32 1.5.75 2.87 1.33 4.26 1.15 2.75 2.79 5.33 4.75 7.7 3.93 4.74 8.95 8.66 14.28 12.07 5.28 3.37 11.02 6.2 16.92 8.77 1.48.64 2.96 1.27 4.46 1.88 1.88.75 3.76 1.51 5.64 2.26 1.28.5 2.58 1.03 3.59 1.57 1.02.54 1.48 1.05 1.84 1.48.18.22.3.42.42.64.06.12.12.23.14.41.01.26-.12.37-.21.49l-.3.36c-.1.12-.27.21-.41.31l-.43.3-.55.23c-.69.25-1.52.4-2.3.59-.44.07-.94.1-1.41.15-.48.05-.94.11-1.49.1-1.06 0-2.11.06-3.21 0-.76-.03-1.37-.06-2.06-.11-2.68-.19-5.32-.46-7.94-.82-5.2-.77-10.39-1.54-15.57-2.3-3.18-.44-6.35-.84-9.5-1.02-1.58-.11-3.13-.12-4.66-.07-1.52.05-3.03.25-4.27.68-.32.1-.55.26-.84.37l-.31.23c-.11.07-.22.14-.28.24-.3.28-.66.98-.96 1.6-.6 1.34-1.07 2.84-1.48 4.35-.84 3.03-1.46 6.18-2.01 9.32-1.05 6.31-1.81 12.71-2.21 19.1-.18 3.19-.32 6.4-.18 9.52.03.78.12 1.54.23 2.24.01.09.03.17.05.25l.03.12c.01.08.05.17.09.25.05.19.28.2.43.27l.13.04c.08.04.18.06.26.08l.56.15 1.15.27c.77.17 1.56.33 2.34.48 7.75 1.47 15.64 2.45 23.53 3.2 7.89.73 15.81 1.18 23.73 1.26 11.98.09 24.05-.49 35.77-2.83 5.85-1.17 11.61-2.81 16.96-5.3 5.33-2.47 10.3-5.87 13.69-10.5 1.32-1.79 2.39-3.75 3.16-5.81.75-2.06 1.2-4.27 1.51-6.47.49-4.42.24-8.92-.71-13.29-.92-4.38-2.35-8.65-4.13-12.79-1.77-4.14-3.82-8.18-6.07-12.13-1.98-3.48-4.08-6.8-6.27-10.21-4.07-6.31-6.88-10.43-8.66-13.46-1.77-3.04-2.59-4.92-3.03-6.58-.2-.75-.52-1.71-.55-2.19-.04-.82.87 0 2.61 2.11 1.74 2.12 4.38 5.51 7.56 10.07 4.72 6.75 9.4 13.74 13.48 21.26 4.03 7.52 7.58 15.61 9.18 24.48.17 1.11.38 2.22.47 3.35l.17 1.69.07 1.71c.08 1.14 0 2.29-.02 3.44-.1 1.15-.18 2.3-.36 3.44-.2 1.14-.37 2.29-.69 3.41-.15.56-.27 1.13-.45 1.69l-.58 1.69c-.86 2.22-2.01 4.34-3.39 6.27-1.37 1.95-3.02 3.66-4.77 5.2-1.75 1.54-3.65 2.9-5.62 4.06-1.97 1.18-4 2.22-6.09 3.1-2.07.91-4.19 1.67-6.33 2.35-6.35 2.02-12.84 3.31-19.36 4.14-6.52.83-13.07 1.24-19.61 1.38-13.08.24-26.13-.53-39.08-2.02l-.02-.08.07-.02Zm370.12-297.14c-.46 6.05-1.07 12.07-1.86 18.08-.79 6-1.67 12-2.83 17.95-.81 4.35-1.66 8.7-2.75 12.99-.49 2.15-1.18 4.26-1.77 6.39-.28 1.07-.67 2.11-1.01 3.16l-1.14 3.36c-.19.54-.53 1.02-1.02 1.32-.49.29-1.04.48-1.62.53-.31.06-.53.04-.74.06h-.61c-.39-.02-.78-.05-1.15-.1-1.49-.18-2.88-.49-4.26-.82-2.75-.68-5.43-1.49-8.09-2.33-5.32-1.7-10.57-3.53-15.82-5.37-6.49-2.26-13.02-4.52-19.49-6.64-4.15-1.38-8.35-2.63-12.51-4.02l-6.24-2.03-3.11-1.03c-1.04-.35-2.05-.78-3.09-1.14-2.56-.97-2.22-.85.11-.63 2.34.17 6.7.45 11.6 1.79 17.35 4.7 34.06 11.25 51.1 16.81 2.31.73 4.65 1.42 7 1.95 1.17.26 2.36.48 3.49.58.28.02.55.04.81.04.14 0 .25 0 .37-.01.09 0 .11 0 .17-.01.2-.02.4-.13.45-.34.43-1.35.86-2.7 1.29-4.06.47-1.42.81-2.89 1.22-4.33l.59-2.17.52-2.19c.34-1.46.69-2.93 1.03-4.38 1.28-5.89 2.34-11.83 3.26-17.8.87-5.98 1.61-11.98 2.18-18 .34-3.7.66-7.41.87-11.13.11-1.85.21-3.71.25-5.56.03-.93.04-1.84.03-2.74v-.17l-.01-.09v-.17c.05-.11-.06-.25-.12-.39-.18-.28-.4-.57-.69-.84-.88-.83-2.06-1.52-3.27-2.14-1.21-.62-2.49-1.16-3.79-1.66-2.6-1.01-5.27-1.87-7.97-2.69-5.39-1.62-10.85-3.02-16.29-4.39-8.46-2.12-16.83-3.96-25.18-6.36-1.84-.53-3.64-1.05-5.48-1.67-3.39-1.19-5.58-2.15-7.04-3-1.42-.93-2.15-1.64-2.67-2.31-.23-.31-.56-.67-.67-.9-.17-.39.42-.31 1.67.01.63.17 1.42.38 2.37.63.96.23 2.01.65 3.23 1.04 14.43 4.78 30.35 8.03 46.18 12.38 2.94.81 5.89 1.67 8.83 2.64 2.94.98 5.87 2.03 8.8 3.55 1.45.81 2.95 1.61 4.35 3.3.34.45.69.93.89 1.63.08.37.14.76.18 1.15.01.11.01.17.01.21v.45c.01.82 0 1.61-.02 2.38-.07 3.1-.26 6.15-.47 9.21h-.08l.01.02Z"/><path fill="#231F20" d="M385.73 137.02c-.48 3.51-1.1 6.99-1.74 10.46-.23 1.27-.41 2.54-.66 3.8-.46 2.22-.95 4.43-1.48 6.63l-1.65 6.58c-.49 1.94-.91 3.91-1.33 5.85-.29 1.24-.46 2.51-.84 3.74-.38 1.22-1.02 2.39-1.41 3.61-.28.75-.32.63-.36-.07-.03-.35-.04-.84-.15-1.46-.05-.32-.1-.65-.15-.99-.03-.18-.03-.35-.09-.54.01-.18-.01-.37 0-.55 0-.33-.02-.67 0-1l.18-.96.36-1.91.76-3.82c.53-2.55 1.1-5.08 1.73-7.62.76-3.04 1.27-6.25 1.82-9.4.64-3.45 1.21-6.92 1.71-10.39.29-2.14.57-4.28.77-6.43.33-3.25.57-6.53.61-9.78a92.79 92.79 0 0 0-.11-3.75l-.27-3.72c-.05-.55-.1-1.08-.14-1.63-.15-2.04.08-2.7.83-3.19.17-.11.34-.25.5-.32.54-.23 1.15.57 1.42 2.09.78 4.5 1.02 9.32.72 14.12-.08 1.79-.24 3.57-.39 5.35-.2 1.78-.36 3.56-.6 5.33h-.08l.04-.03Zm27.72 1.04c-.2 1.69-.48 3.37-.99 5.08-.12.43-.26.86-.45 1.3-.09.21-.14.44-.37.77l-.56.91c-.18.3-.47.46-.7.7l-.18.16-.05.04-.02.02h-.01v.02c-.09-.21-.03-.06-.05-.1l-.11.04c-.14.04-.28.09-.43.12-.3.08-.66-.02-1-.11l-.52-.15-.45-.15c-1.15-.4-2.29-.73-3.41-1.15l-10.14-3.96c-.48-.2-.82-.47-.87-.91-.03-.43.13-.97.32-1.47l.48-1.44c.14-.43.26-.87.37-1.3.22-.88.39-1.76.51-2.65.34-2.3.17-4.59.31-6.96.11-.75.06-.65.39-.07.17.29.37.72.62 1.24.11.26.26.55.35.86.08.31.14.65.17 1 .2 2 .17 4.03-.1 6.05a23.27 23.27 0 0 1-.6 2.99c-.07.23-.17.55-.17.55-.02.05-.03.05-.05.08-.02.03-.04.06-.05.09.01.02.03.04.06.05.02.03.05.04.08.07l.68.26 1.35.54c2.69 1.1 5.61 1.95 8.41 2.88l2.2.72c.14.05.28.1.44.14.13-.05.22-.2.3-.32.04-.08.08-.11.12-.24l.19-.5c.14-.33.22-.72.34-1.07.19-.74.35-1.51.48-2.29.31-1.92.46-3.9.45-5.86 0-.76-.02-1.52-.09-2.25-.02-.38-.08-.73-.14-1.07-.05-.27-.08-.44-.19-.65-.04-.11-.16-.12-.25-.17l-.33-.14-1.03-.41c-.7-.25-1.4-.49-2.09-.74-2.22-.79-4.46-1.4-6.7-2.11-.49-.16-.99-.29-1.48-.47-1.81-.69-2.22-1.39-2.27-2.25-.01-.19-.06-.38-.05-.53.02-.25.25-.38.68-.5.43-.13 1.02-.15 1.71-.02 2.03.44 4.03 1.13 6.09 1.81 1.02.35 2.05.71 3.07 1.11 1.02.42 2.01.89 3.07 1.3.12.06.6.21.92.43.34.21.66.44.96.68.36.59.57 1.29.78 1.93.07.46.16.88.18 1.27.08.8.11 1.56.11 2.33.01 1.52-.07 3.01-.22 4.51h-.07v-.04Zm28.47 9.06c-1.41-.49-2.82-.98-4.25-1.44-.52-.17-1.06-.26-1.58-.43l-5.46-1.92c-.8-.29-1.63-.52-2.44-.75-1.05-.29-2.12-.48-3.06-1.17-.28-.25-.18-.43.19-.71.39-.34 1.03-.68 1.66-.61 1.11.11 2.18.36 3.26.6 1.08.23 2.13.58 3.16 1 1.24.5 2.62.69 3.94 1.03l4.34 1.18 2.67.76c1.35.38 2.7.82 4.06 1.13 1.05.27 2.15.28 3.2.53.23.05.47.07.7.14.85.25 1.04.58 1.02 1.31 0 .17 0 .34-.02.5-.08.54-.56.89-1.24.94-2.01.15-3.92-.33-5.85-.82-1.43-.37-2.87-.77-4.31-1.19l.02-.08h-.01Zm-12.35 23.45-6.94-2.48c-.85-.29-1.71-.52-2.56-.82-2.98-1.04-5.96-2.09-8.94-3.13-1.32-.45-2.67-.85-4.01-1.23-.86-.25-1.72-.47-2.57-.74-.85-.28-1.69-.59-2.52-.94-.52-.22-.38-.43.15-.59.53-.15 1.47-.3 2.5-.14 1.8.32 3.56.8 5.34 1.25 1.76.48 3.53.97 5.25 1.62 2.07.76 4.3 1.28 6.45 1.93l7.08 2.22 4.35 1.39c2.2.69 4.39 1.42 6.6 2.02 1.71.46 3.44.75 5.17 1.08.38.08.76.12 1.14.21 1.4.34 1.78.69 1.88 1.5.02.19.07.38.06.56-.02.6-.72.92-1.8.84-3.18-.32-6.38-1.23-9.57-2.2-2.36-.73-4.72-1.5-7.07-2.3l.02-.07-.01.02Zm-1.6 10.38c-2.1-.77-4.2-1.52-6.32-2.25-.77-.27-1.56-.46-2.33-.73-2.72-.95-5.43-1.91-8.15-2.86-1.2-.42-2.43-.79-3.65-1.15l-2.35-.67c-.79-.21-1.52-.6-2.27-.94-.46-.23-.31-.49.2-.7.5-.19 1.42-.48 2.34-.3 3.22.82 6.44 1.63 9.56 2.88 1.87.73 3.9 1.21 5.86 1.83l6.44 2.1 3.95 1.33c2 .66 3.99 1.39 5.98 2.02 1.55.5 3.13.82 4.67 1.32.34.11.68.19 1.02.31 1.25.46 1.58.79 1.59 1.52 0 .17.02.34 0 .5-.08.53-.74.74-1.69.56-1.41-.29-2.85-.59-4.26-1.04-1.41-.44-2.83-.92-4.25-1.41l-6.36-2.22.02-.06v-.04Zm-69.53 57.27-5.01-1.91-5.04-1.88-.64-.25-.47-.18c-.18-.08-.39-.14-.55-.24l-.95-.59c-.17-.09-.3-.2-.41-.32l-.17-.17c.02-.1-.04-.18-.04-.26-.06-.32-.19-.63-.1-1.02.05-.38.16-.77.25-1.16l.39-1.46c.43-1.7.83-3.39 1.18-5.11.51-2.51.81-5.05 1.12-7.6.34-2.81.55-5.64.69-8.48.06-1.42.11-2.84.1-4.26l-.02-2.13-.02-1.16-.06-1.74.41-1.48c.19-.21.46-.24.7-.27.25-.02.52-.03.83.03.6.1 1.26.34 1.89.57l.77.3.6.24 4.76 2.01c3.74 1.59 7.53 3.1 11.31 4.47 2.42.9 4.9 1.6 7.32 2.47 1.22.42 2.45.78 3.67 1.17 1.22.39 2.46.74 3.72.99 1.57.3 1.38.35-.02.53-.7.08-1.71.17-2.93.2-.61.01-1.28.03-1.98-.02-.7-.06-1.43-.15-2.19-.29-1.3-.26-2.62-.47-3.88-.86-1.26-.38-2.52-.79-3.76-1.22-2.48-.86-4.95-1.76-7.37-2.75-2.42-1-4.82-2.03-7.2-3.07l-3.37-1.44c-.1-.06-.21-.12-.35-.18-.21-.11-.14.12-.18.22v.14l-.03.15v.61l-.02 1.22c-.01.81-.02 1.63-.04 2.45 0 1.64-.04 3.29-.09 4.95-.11 3.31-.33 6.64-.77 9.93-.48 3.61-1.14 7.22-2.16 10.72l-.23.8c-.02.09-.05.17-.07.26-.04.11.11.12.17.17.19.08.27.13.55.24l1.24.5c1.66.66 3.33 1.31 5.02 1.93 4.15 1.51 8.31 3.03 12.46 4.54 3.15 1.13 6.31 2.26 9.47 3.39 1.58.56 3.16 1.11 4.73 1.67l1.78.62c.11.02.23.12.33.07.08-.09.12-.2.17-.31.09-.22.16-.45.23-.67l.23-.81.24-.92c.15-.61.29-1.23.43-1.85.26-1.24.49-2.48.7-3.73.41-2.49.72-4.99.95-7.5.1-1.11.15-2.19.22-3.3.14-2.06.2-3.41.36-4.36.17-.95.42-1.5.81-1.96.18-.21.34-.49.52-.62.55-.45 1.29 1.28 1.36 4.45.08 4.69-.42 9.45-1.26 14.23a78.6 78.6 0 0 1-.72 3.59l-.43 1.8-.24.9-.29.98c-.36 1.11-.76 2.36-1.52 2.9-.17.13-.44.27-.61.32-.22.02-.49 0-.73 0-.25-.02-.48.02-.75-.04l-.85-.3-3.86-1.37c-6.77-2.42-13.54-4.92-20.3-7.42l.02-.07h-.02Z"/><path fill="#231F20" d="M370.77 219.84c-.8-.44-1.6-.86-2.43-1.24-.3-.14-.63-.21-.93-.35-1.07-.47-2.12-1.07-3.23-1.48-.49-.2-1-.32-1.51-.44-.65-.13-1.3-.3-1.92-.62-.19-.1-.12-.35.11-.61.23-.25.62-.55 1.03-.57.72-.04 1.42.06 2.11.21.69.14 1.37.34 2.03.62.79.32 1.67.46 2.48.77.89.33 1.77.71 2.64 1.1l1.59.74c.8.37 1.59.79 2.39 1.15.62.27 1.3.41 1.95.63.14.05.3.07.43.14.51.23.58.47.35 1.13-.05.15-.1.3-.16.45-.21.49-.62.77-1.04.73-1.25-.13-2.37-.58-3.49-1.06l-2.43-1.23.02-.06.01-.01Zm-.93 8c-.82-.39-1.66-.77-2.51-1.11-.31-.13-.64-.19-.95-.32-1.09-.47-2.19-.95-3.28-1.41-.49-.2-.99-.36-1.49-.51-.32-.1-.65-.2-.96-.3a5.8 5.8 0 0 1-.89-.53c-.18-.13-.11-.25.12-.4.23-.13.64-.35 1.04-.37 1.34.22 2.67.5 3.96 1 .77.3 1.62.44 2.43.68.89.27 1.77.57 2.66.89l1.62.6c.82.32 1.62.69 2.44.98.63.24 1.32.33 1.97.57.14.05.29.08.43.15.51.25.59.48.42 1.05-.04.13-.07.26-.12.38-.17.41-.54.64-.95.61-.59-.07-1.2-.12-1.76-.3-.56-.17-1.12-.37-1.68-.58-.84-.31-1.67-.65-2.51-1.01l.02-.06-.01-.01Zm131.38-11.57c-.1 5.21-.53 10.27-1 15.36-.16 1.86-.28 3.71-.49 5.56-.79 6.51-1.75 13.01-3.08 19.44-.27 1.43-.57 2.86-.87 4.28-.29 1.43-.55 2.86-.93 4.26l-.66 2.71c-.24.9-.52 1.79-.78 2.69-.54 1.78-1.36 3.49-2.12 5.18-.49 1.05-.61.83-.59-.19 0-1.04.14-2.85.38-4.96.16-.92.38-1.82.57-2.73.19-.91.33-1.83.5-2.75l1.02-5.49c.69-3.67 1.24-7.37 1.97-11.08.8-4.45 1.16-9.14 1.55-13.75.45-5.06.83-10.14.98-15.21.05-1.56.07-3.12.04-4.64l-.05-1.12c0-.22-.04-.27-.05-.41-.02-.11 0-.25-.05-.33-.04-.1-.09-.16-.16-.25-.07-.1-.2-.23-.3-.34-.24-.24-.5-.47-.79-.7-1.74-1.4-3.78-2.65-5.8-3.85-2.04-1.19-4.11-2.32-6.22-3.36-3.28-1.62-6.62-2.93-9.98-4.26-.74-.29-1.48-.54-2.22-.84-1.37-.56-2.26-.97-2.81-1.41-.55-.47-.79-.92-.91-1.48-.05-.26-.16-.52-.16-.75 0-.38.33-.59.95-.67.62-.07 1.53-.03 2.59.32 6.31 1.96 12.59 4.86 18.73 8.22 2.27 1.28 4.51 2.61 6.73 4.21.56.41 1.11.83 1.68 1.32.28.25.57.51.87.83.16.18.29.3.46.54.19.23.38.52.51.8.07.14.15.28.19.42l.09.42c.06.28.12.56.16.83.05.31.04.43.05.61l.02.52.04 1.04v.99h-.09l.03.02Zm-79.39 35.72c2.17 1.44 4.7 2.67 7.25 3.8 2.56 1.13 5.19 2.18 7.84 3.18 1.93.73 3.92 1.35 5.86 2.06l20.68 7.55c3.06 1.14 6.13 2.29 9.17 3.42 1.95.73 3.9 1.48 5.81 2.32.95.43 1.91.85 2.85 1.32l1.4.7c.46.25.88.58 1.32.87 1.08.76.89.73-.25.61-.57-.07-1.42-.06-2.35-.26-.94-.18-2.01-.44-3.14-.81-7.97-2.69-16.02-5.17-23.99-8.28-4.78-1.82-9.9-3.28-14.83-5.07-5.42-1.98-10.85-3.99-16.09-6.66-1.61-.85-3.2-1.75-4.7-2.94-.37-.31-.75-.6-1.09-.98-.18-.2-.35-.33-.53-.58l-.54-.81c-.36-.54-.26-1.3-.21-1.86.06-.48.13-.92.21-1.37 1-5.33 2.25-10.53 3.08-15.77.66-4.06 1.03-8.09 1.24-12.11.04-.89.05-1.75.07-2.64.1-3.28.18-4.27 1.05-5.05.18-.17.36-.41.53-.52.53-.39 1.41.97 1.54 3.54.42 7.56-.88 15.29-2.27 22.92-.53 2.82-1.06 5.64-1.59 8.47-.13.7-.25 1.39-.35 2.06-.05.32-.1.7-.13.91 0 .01-.01.02 0 .04v.03l.02.01.13.13c.2.19.34.38.59.57.24.19.45.38.7.57l.79.55-.04.07-.03.01Z"/><path fill="#231F20" d="M465.58 233.3c-2.25-1.01-4.49-2.05-6.73-3.09-.82-.38-1.67-.68-2.48-1.06-2.88-1.35-5.75-2.7-8.65-3.99-1.29-.56-2.59-1.12-3.88-1.65-.83-.35-1.68-.64-2.48-1.04-.81-.41-1.58-.88-2.36-1.35-.48-.3-.39-.32.11-.31.49.04 1.48-.08 2.52.1.23.04.46.08.69.13l.66.21 1.31.42 2.61.88c1.72.64 3.4 1.38 5.08 2.16 2 .94 4.19 1.65 6.29 2.48 2.31.92 4.61 1.86 6.89 2.83l4.23 1.78c2.14.88 4.27 1.81 6.43 2.6 1.67.62 3.4 1.03 5.08 1.56.37.12.74.21 1.11.34 1.35.54 1.66 1 1.69 1.78 0 .18.03.37.01.54-.07.56-.8.79-1.9.68-3.2-.48-6.27-1.77-9.38-3-2.3-.94-4.58-1.95-6.87-2.92l.02-.07v-.01Zm-5.66 9.73c-1.74-.76-3.47-1.52-5.2-2.31-.63-.28-1.29-.5-1.92-.79-2.22-1.02-4.42-2.06-6.65-3.04-.98-.45-1.99-.85-2.99-1.24l-1.93-.74c-.63-.28-1.24-.63-1.84-.98-.37-.23-.23-.44.22-.6.45-.15 1.23-.31 2.02-.17 2.7.81 5.36 1.72 7.9 3.01 1.53.75 3.22 1.28 4.83 1.92 1.77.71 3.53 1.44 5.28 2.2l3.24 1.37c1.64.68 3.28 1.39 4.94 1.99 1.29.46 2.6.81 3.89 1.24.28.09.57.17.85.27 1.04.4 1.32.68 1.33 1.29 0 .14.02.29 0 .42-.06.44-.61.62-1.43.48a43.86 43.86 0 0 1-3.66-.84c-1.21-.36-2.41-.83-3.61-1.28-1.78-.68-3.54-1.43-5.31-2.15l.02-.06.02.01Zm-201.21-91.42c-1.86-.02-3.72-.35-5.46-.86-1.73-.54-3.39-1.21-4.96-1.94-1.57-.74-3.06-1.58-4.48-2.34-.72-.39-1.4-.72-2.04-1.05l-.46-.2c-.19-.09-.14-.06-.19-.08a.537.537 0 0 0-.21-.05c-.12-.03-.21.08-.26.18-.03.05-.05.11-.07.16l-.24.8c-.34 1.19-.68 2.49-1.2 3.8-.51 1.31-1.18 2.65-2.2 3.85-1 1.2-2.41 2.19-3.92 2.68-.63.22-1.28.35-1.91.44-.63.08-1.25.12-1.93.07-.66 0-1.32-.16-1.97-.29-.62-.21-1.28-.4-1.83-.72-2.33-1.19-3.87-3-5.31-4.49-1.25-1.35-2.48-2.52-3.64-2.87-.15-.03-.29-.06-.43-.1-.16-.03-.37-.03-.55-.05-.39-.05-.75-.01-1.11 0-.72.08-1.4.26-2.02.62-1.27.65-2.29 1.95-3.14 3.41-.83 1.49-1.5 3.17-2.1 4.89l-1.75 5.33c-.63 1.8-1.26 3.65-2.42 5.47-.59.88-1.38 1.85-2.63 2.39-.32.1-.64.24-.96.28-.33.03-.67.09-.98.06-.31-.04-.63-.06-.93-.12-.3-.09-.6-.18-.89-.29-1.15-.5-1.96-1.31-2.63-2.07-.67-.77-1.23-1.55-1.78-2.28-.98-1.28-1.99-2.46-3.23-3.19-1.22-.73-2.7-1.04-4.13-.94-1.43.13-2.78.74-3.85 1.71-1.04.99-1.82 2.27-2.18 3.67-.25.89-.3 1.83-.23 2.75.03.23.05.46.08.69l.17.7.17.7.26.67c.68 1.78 1.88 3.33 3.3 4.63 1.44 1.29 3.16 2.29 5.01 2.91.93.28 1.86.55 2.83.75.96.13 1.97.21 2.94.04.63-.05 1.05-.2 1.34-.25.29-.06.44-.07.45-.02 0 .05-.12.17-.36.36-.25.19-.61.49-1.14.75-1.03.59-2.71 1.22-4.9 1.34-2.17.05-4.71-.7-7.04-2.24l-.77-.52c-.24-.19-.48-.4-.72-.6-.48-.39-.95-.81-1.35-1.3-.44-.45-.81-.97-1.16-1.49-.39-.5-.68-1.07-.97-1.64-.32-.55-.53-1.16-.75-1.76-.25-.59-.37-1.22-.51-1.84-.3-1.23-.36-2.65-.16-3.95.35-2.65 1.7-5.16 3.78-6.91s4.98-2.63 7.65-2.25c1.33.17 2.7.57 3.86 1.29 1.17.7 2.15 1.59 2.96 2.5.82.91 1.49 1.84 2.12 2.64.63.81 1.25 1.5 1.79 1.87.14.09.26.13.39.22.13.03.25.08.38.12.12 0 .26.04.37.03.09-.04.21.02.29-.05.33-.08.84-.49 1.31-1.23.93-1.49 1.62-3.55 2.29-5.58.81-2.45 1.62-5.03 2.73-7.61.57-1.29 1.23-2.58 2.11-3.81.87-1.22 2.01-2.4 3.47-3.2 1.45-.82 3.16-1.15 4.74-1.08.41.04.76 0 1.22.12.44.1.9.17 1.29.36.41.16.81.33 1.15.56l.53.32.47.35c1.23.96 2.17 2.01 3.09 2.97.91.96 1.78 1.86 2.71 2.55.66.5 1.36.86 2.07 1.1.73.21 1.45.29 2.26.22 1.62-.12 2.98-.76 3.99-1.93 1.01-1.18 1.66-2.81 2.16-4.58l.77-2.82c.23-.74.5-1.47.94-2.04.22-.29.47-.54.79-.72.31-.19.67-.25 1.02-.31.39-.02.78.02 1.17.06.39.03.77.2 1.16.29.41.1.58.22.88.33.28.11.5.23.76.35.98.48 1.86 1.04 2.73 1.55 1.74 1.05 3.44 2.03 5.22 2.82 3.17 1.37 6.58 1.9 9.9 1.27 1.65-.31 3.26-.87 4.75-1.65 1.48-.81 2.83-1.84 4-3.05 1.75-1.85 3.11-4.09 3.76-6.57.63-2.47.85-5.14.51-7.7-.68-5.17-3.45-9.94-7.28-13.44-2.97-2.76-6.63-4.67-10.45-5.71-3.81-.99-7.9-.92-11.78-.22-1.71.36-3.35.83-4.96 1.47-.75.29-1.41.62-2.02.88-.58.32-1.13.59-1.61.87-.46.3-.9.54-1.3.76-.38.25-.72.47-1.03.67-.66.36-1.1.74-1.58.96-.49.22-.87.41-1.26.55-.36.13-.78.37-1.04.42-.45.09-.34-.47.22-1.73.6-1.21 1.95-2.95 4.2-4.52 1.69-1.11 3.5-2.05 5.41-2.75 1.91-.68 3.89-1.21 5.92-1.5 4.05-.59 8.29-.49 12.45.71 4.07 1.23 7.93 3.3 11.13 6.2 1.64 1.4 3.05 3.07 4.34 4.84.59.92 1.21 1.83 1.68 2.82.54.96.93 1.99 1.34 3.02 1.12 3.08 1.61 6.42 1.38 9.7-.13 1.64-.37 3.24-.84 4.89-.52 1.61-1.17 3.19-2.1 4.6-1.77 2.88-4.33 5.21-7.24 6.82a19.967 19.967 0 0 1-9.59 2.42l-.02-.09h-.01Zm-103.74 21.44c.3 2.57 1.24 5.09 2.87 7.09.63.71 1.34 1.34 2.1 1.93 1.32 1.06 2.81 1.99 4.46 2.62 1.63.64 3.37 1.13 5.15 1.3.79.14 1.59.11 2.38.14.79-.07 1.59-.07 2.36-.23 1-.15 1.97-.45 2.96-.67.95-.33 1.94-.55 3.01-.76.68-.1.68.03.37.63-.31.57-.87 1.97-2.13 2.52-2.14 1.12-4.56 1.52-6.93 1.63-2.39.15-4.78-.42-6.99-1.27-2.63-1.03-5.39-2.21-7.58-4.21-2.41-2.19-4.04-5.19-4.76-8.26-.42-1.91-.56-3.87-.39-5.8.28-2.93 1.37-5.76 3.1-8.14 1.35-1.83 3.09-3.44 5.25-4.39.24-.11.46-.23.7-.33.24-.08.49-.15.74-.22.47-.12.86-.21 1.2-.25.34 0 .61.06.84.13.45.15.71.39.91.74.09.16.21.31.25.46.08.26-.05.51-.34.77-.29.25-.71.54-1.25.69-1.59.55-3.02 1.32-4.23 2.39-1.21 1.06-2.21 2.4-2.89 3.95-.99 2.3-1.4 4.94-1.08 7.52h-.08v.02Zm103.23 8.91c-.43.97-.86 1.91-1.4 2.92-.16.28-.25.48-.58.91-.06.07-.05.07-.16.19-.14.14-.3.26-.47.36-.29.15-.48.18-.76.21-.54.03-.98-.17-1.22-.33-.49-.33-.65-.58-.79-.71l-.06-.06a1.62 1.62 0 0 1-.37-.54c-.04-.1-.07-.21-.09-.31-.02-.13 0-.07-.02-.12-.01-.17 0-.4 0-.46.02-.21.06-.36.09-.51.19-.84.35-1.58.6-2.32.89-2.57 1.91-5.04 3.01-7.5.48-1.09.97-2.19 1.45-3.27.64-1.37 1.2-2.89 2.6-3.85.52-.22.46-.15.51.38l.09 1.02c.01.39-.05.78-.18 1.17-.57 1.37-1.13 2.73-1.7 4.1-.55 1.39-1.16 2.78-1.82 4.16-.78 1.66-1.24 3.52-1.74 5.28-.13.48-.27.98-.34 1.39l-.02.12v.05s.02-.02-.03-.02c-.13 0-.27 0-.4.01-.13 0-.29.05-.38.05a.237.237 0 0 0-.2.02.27.27 0 0 0-.08.07c1.44-1.66.4-.45.72-.82h.01l.05.06.16.16.22.21s.04.03.04.04c-.11.16-.19.34-.22.42-.03.11-.03.15-.03.16v-.06l-.02-.02v-.01c.38.86.1.23.19.42v-.02a.756.756 0 0 0-.3-.38c-.03-.02-.07-.04-.11-.06l-.16-.14c-.16-.14-.11-.1-.11-.11.01-.02.01 0 .04-.06.1-.15.21-.36.32-.58.22-.43.43-.9.63-1.36.5-1.15.99-2.33 1.44-3.52.68-1.8 1.38-3.61 1.92-5.45.42-1.43.67-2.88.93-4.31.06-.31.08-.63.14-.93.06-.28.11-.5.16-.66.02-.05.02-.05.03-.08l.02-.03v-.02s.18.04.26.06c.18.03.37.03.54.01.09 0 .18-.03.26-.05l.06-.02c.23-.05-2.01.39-1.06.21l.05-.02s.28-.12.41-.22c.14-.1.18-.17.22-.23.09-.15.08-.34.03-.52-.03-.15-.04-.29.08-.41.11-.12.4-.19.72-.08.32.11.59.35.8.63a1.761 1.761 0 0 1 .2.36c.02.08.04.17.05.27.01.08.01.22.02.25v.36c-.06 1.55-.33 2.83-.67 4.22-.34 1.36-.77 2.7-1.23 4.03-.69 1.98-1.48 3.93-2.29 5.9l-.06-.02v.01Z"/><path fill="#231F20" d="M218.21 211.29c4.54 1.12 9.31 1.41 13.94.7 1.68-.28 3.33-.72 4.93-1.27 2.85-.9 5.49-2.35 7.92-4.16 2.42-1.81 4.57-4 6.33-6.5 1.57-2.22 2.85-4.67 3.85-7.19.68-1.61 1.13-3.31 1.73-4.97.54-1.68 1.03-3.37 1.82-5.01.34-.49.51-.7.59-.67.08.03.1.31.27.84.17.52.32 1.25.46 2.13.1.87.05 1.86-.17 2.9-.19.92-.4 1.85-.67 2.75-.31.9-.58 1.8-.94 2.69-.65 1.79-1.49 3.52-2.4 5.21-1.92 3.34-4.39 6.43-7.43 8.86a40.796 40.796 0 0 1-5.79 4.01 28.572 28.572 0 0 1-6.59 2.7c-5.02 1.34-10.25 1.47-15.29.71a43.56 43.56 0 0 1-9.07-2.44 41.453 41.453 0 0 1-12.06-7.38c-2.76-2.4-5.2-5.1-7.19-8.17-.46-.66-.84-1.35-1.24-2.06-.37-.66-.59-1.25-.79-1.73-.18-.49-.34-.88-.34-1.26.01-.75.14-1.22.31-1.62.08-.18.13-.4.21-.51.13-.19.37-.03.81.35.22.19.48.45.78.75.16.14.28.33.39.52.13.19.26.4.39.62 1.52 2.63 3.3 5.14 5.38 7.42.51.58 1.08 1.11 1.61 1.67.58.52 1.13 1.06 1.73 1.56.6.5 1.17 1.03 1.81 1.49.61.49 1.25.94 1.9 1.38 3.85 2.61 8.22 4.55 12.81 5.61v.08-.01Zm44.47 75.6c.62-.32 1.16-.7 1.58-1.14.41-.42.76-.96 1.09-1.65.33-.68.62-1.46.96-2.28.35-.81.7-1.71 1.31-2.54.44-.61.95-1.23 1.6-1.73.15-.14.34-.23.51-.34.19-.09.3-.25.6-.29.5-.17.99-.46 1.48-.48.43-.04.88-.2 1.27-.07.4.09.79.3 1.08.6.56.61.8 1.48.8 2.41.02.45-.05.97-.1 1.24l-.05.25c-.01.06-.01.04-.01.04v.03s-.04.09-.07.13c-.11.15-.22.35-.22.56 0 .11.05.21.13.27.08.05.18.07.28.11.2.03.43.03.63-.07s.38-.24.55-.44c.28-.32.53-.75.74-1.19.38-.78.65-1.67.82-2.56.16-.87.25-1.86.17-2.61-.12-.96-.65-1.72-1.55-2.43-.89-.7-1.95-1.43-2.85-2.37-.49-.68-.34-.66.41-.6.38.02.87.1 1.47.18.6.08 1.27.25 1.94.65.6.35 1.24.77 1.84 1.38.59.61 1.11 1.45 1.31 2.34.11.45.13.87.15 1.3 0 .37 0 .74-.04 1.09-.05.72-.17 1.42-.32 2.11-.34 1.38-.79 2.75-1.72 4.08l-.46.6-.64.59c-.2.22-.45.33-.69.47-.24.14-.47.29-.72.35-.25.07-.49.16-.74.18l-.73.04c-.47-.07-.95-.11-1.36-.31-.52-.14-.99-.49-1.24-.98-.24-.48-.3-.98-.24-1.51.03-.26.09-.53.19-.81s.23-.63.4-.93c.09-.23.06-.24.09-.32l.04-.22c.01-.1.02-.14.02-.21 0-.23-.03-.57-.31-.61-.13 0-.24.05-.37.07-.13.06-.18.05-.45.26-1 .71-1.6 2.07-2.25 3.63-.32.78-.64 1.61-1.06 2.45-.41.83-.97 1.72-1.71 2.42-1.83 1.69-4.05 2.44-6.2 2.93-1.65.36-3.32.5-4.98.5-1.51-.03-2.95.28-4.38.81-2.21.84-4.18 2.17-6.13 3.55-.43.3-.83.64-1.27.94-1.64 1.12-2.33 1.29-3.14.83-.18-.11-.39-.19-.54-.32-.48-.44-.1-1.3 1-2.28 1.66-1.45 3.54-2.81 5.64-3.98 2.11-1.15 4.45-2.15 7.17-2.47.49-.05 1.06-.06 1.51-.08.39 0 .78 0 1.17-.03.78-.05 1.56-.12 2.32-.25 1.52-.26 3.02-.68 4.24-1.36l.04.06-.01.01Z"/><path fill="#231F20" d="M206.07 280.94c2.59.92 5.82 1.03 8.95.96 3.16-.09 6.37-.43 9.58-.84 2.34-.3 4.68-.75 7.05-1.08 2.11-.27 4.16-.59 6.48-.65.24.01.79-.02 1.19.08.21.04.43.05.64.12l.58.24c.17.12.38.19.52.35.13.17.29.31.39.5.1.18.23.35.31.55l.2.62c.25.97.22 1.45.26 2.04.01.57 0 1.12-.01 1.67-.22 4.33-.8 8.44-.98 12.6-.09 1.84-.09 3.68.07 5.47.16 1.79.47 3.57 1.17 5.06.45.93 1.06 1.77 1.84 2.18.34.15.62.24.95.14.33-.1.72-.32 1.07-.68.18-.17.36-.35.52-.56.17-.2.33-.41.48-.64.33-.43.63-.91.91-1.4.27-.5.56-.99.83-1.51.28-.51.49-1.05.73-1.58.57-1.34.35-1.25.51.08 0 1.28.38 3.95-1.45 6.67-.4.59-.95 1.17-1.66 1.69-.18.13-.41.24-.62.35-.21.11-.43.21-.7.27-.26.06-.52.12-.79.15-.27 0-.55-.02-.83-.05-.29-.01-.52-.11-.76-.2-.24-.09-.49-.19-.7-.3-.35-.23-.73-.45-1.04-.73-.63-.55-1.17-1.17-1.54-1.84-.77-1.32-1.17-2.67-1.45-3.99-.28-1.32-.41-2.61-.49-3.88-.27-5.09.33-10 .77-14.81.12-1.43.22-2.89.14-4.22-.07-.83-.07-.84-.18-1.1-.06-.11-.18-.15-.3-.17l-.18-.02h-.32c-1.35.05-2.83.26-4.3.47-1.48.22-2.96.45-4.44.67-3.26.48-6.55.94-9.88 1.24-3.33.28-6.69.47-10.12.12-2.1-.22-4.26-.65-6.3-1.77l-.74-.48c-.23-.16-.58-.47-.76-.72-.45-.53-.67-1.04-.93-1.54-.45-.99-.79-1.93-1.21-2.75-.31-.62-.67-1.16-1.08-1.51-.41-.35-.85-.51-1.43-.53l-4.64-.19-1.16-.05c-.2-.01-.36 0-.6-.03-.24-.04-.49-.06-.73-.12-.95-.23-1.74-.74-2.39-1.3-1.3-1.13-2.22-2.48-3.03-3.83-2.45-4.25-4.14-8.65-5.68-13.11-.33-.99-.68-1.94-.96-2.95-1.06-3.73-1.05-5-.55-5.99.11-.23.21-.51.34-.65.22-.25.53-.02.94.59.41.61.93 1.61 1.4 2.93 1.5 3.9 2.81 7.95 4.45 11.85.82 1.95 1.69 3.87 2.73 5.61.52.86 1.07 1.68 1.66 2.35.58.66 1.23 1.18 1.69 1.32.08 0 .17.08.23.06.1 0 .07.03.33.03l1.21.04 2.42.08 2.48.09c.34.02.67.05 1.01.1.34.09.69.19 1.02.31.32.16.64.32.93.51.26.2.54.41.77.64.91.91 1.4 1.86 1.81 2.7.4.84.69 1.63.99 2.27.15.32.29.59.42.79.06.06.11.16.15.19.04.01-.02.02.16.12.24.16.47.32.77.45.27.15.58.26.9.38l-.02.08v-.01Zm98.46-4.76-8.42 8.35c-1.02 1.02-1.98 2.1-3.01 3.11-3.63 3.56-7.34 7.04-11.03 10.54-1.63 1.56-3.23 3.17-4.8 4.78-2.04 2.03-4.04 4.15-6.69 5.59-.49.12-.73.12-.79.02-.07-.11.03-.35.11-.85s.31-1.05.59-1.67c.14-.32.31-.66.5-.99.1-.17.21-.33.31-.5.13-.15.25-.31.39-.45 1.93-2.15 4.01-4.19 6.11-6.22 2.09-2.04 4.23-4.06 6.42-6.04 2.62-2.37 5.07-5.11 7.6-7.69l8.38-8.49 5.13-5.25c2.57-2.67 5.18-5.32 7.64-8.05 1.92-2.12 3.64-4.34 5.45-6.52.4-.48.76-.97 1.18-1.44.77-.87 1.32-1.41 1.82-1.68.51-.26.95-.28 1.45-.15.23.06.48.09.68.18.33.15.44.5.36 1-.08.5-.34 1.16-.85 1.85-2.96 4.14-6.49 8.15-10.16 12.04-2.72 2.9-5.53 5.75-8.3 8.61l-.07-.06v-.02Z"/><path fill="#231F20" d="M291.1 290.07s-.05.02-.07.04l-.03.03-.08.13c-.05.09-.12.17-.17.26-.21.37-.4.76-.58 1.18-.34.83-.61 1.71-.78 2.62-.11.67-.14 1.34-.21 2.01-.02.43-.08.87-.07 1.3.07.78.04 1.61-.45 2.23-.46.46-1.1.79-1.67 1.01-.37.16-.73.32-1.08.5-.7.35-1.37.77-2.02 1.24-.91.64-1.63 1.5-2.34 2.34-.46.54-.84 1.14-1.24 1.74-.2.3-.36.61-.62.89l-.36.42c-.14.14-.34.24-.53.36-.56.26-.27.32-.38-.16-.14-.48-.63-1.57-.17-2.39.68-1.48 1.5-3 2.74-4.15 1.19-1.19 2.6-2.17 4.12-2.86.27-.12.7-.33.75-.33.13-.05.21-.06.3-.12.07-.07.1-.17.07-.27v-.16l-.05-.49c-.04-.68-.07-1.36-.02-2.04.18-2.24.81-4.42 1.92-6.44l.3-.49c.11-.21.27-.4.42-.58l.44-.56c.15-.17.33-.31.49-.47.32-.34.69-.51 1.04-.75.37-.15.74-.32 1.13-.36.11-.02.22-.05.34-.06.28.02.56 0 .83.14.26.13.43.35.57.57.26.44.41.99.49 1.61.07.62.06 1.3.04 1.95l-.04 1.48c-.02 1.49.13 2.94.35 4.3.05.3.13.58.18.87.2 1.05.14 1.28-.49 1.81-.14.12-.26.26-.4.37-.23.18-.5.21-.83.05-.32-.15-.61-.52-.81-1.01-.58-1.45-.74-2.91-.83-4.33-.04-.71-.05-1.41-.05-2.1 0-.34-.01-.69-.02-1.02v-.13c0 .01.04-.03.02-.08-.01-.04-.05-.05-.09-.02l-.05-.07-.01-.01Zm-130.3 13.25c2.14 2.74 4.49 5.43 7.14 7.24.72.44 1.47.85 2.21 1.28.72.45 1.52.8 2.31 1.15.8.35 1.57.73 2.39 1.05l2.48.89c1.19.47 2.46.76 3.7 1.1l1.87.51 1.89.43c8.88 2.13 18.09 3.17 27.3 3.46 2.04.09 4.09 0 6.14-.02 1.02-.03 2.04-.11 3.06-.17 1.02-.07 2.04-.07 3.04-.18 5.2-.38 10.34-1.25 15.43-2.29 1.68-.04 1.47-.05.28.81-.59.45-1.49.92-2.61 1.47-1.13.45-2.47.97-3.98 1.33-10.69 2.37-21.69 2.45-32.55 1.25-6.49-.77-13.26-1.59-19.77-3.3-1.78-.5-3.57-.95-5.32-1.62-.88-.32-1.76-.59-2.63-.94l-2.57-1.13c-.87-.34-1.69-.83-2.51-1.29-.81-.49-1.68-.85-2.43-1.49-1.61-1.12-2.96-2.45-4.26-3.79-3.14-3.36-5.8-7.05-8.28-10.83-3.77-5.71-7.05-11.73-10.12-17.76-2.4-4.68-4.7-9.3-6.75-14.11-.44-1.06-.93-2.08-1.32-3.18-1.53-4.03-1.6-5.47-1.02-6.59.13-.26.23-.57.36-.74.42-.54 1.63.9 2.75 3.76 3.54 8.42 7.63 17.15 12.26 25.63.86 1.58 1.73 3.14 2.65 4.68.88 1.56 1.84 3.08 2.79 4.6.94 1.53 1.96 2.99 2.95 4.48 1.06 1.43 2.06 2.92 3.19 4.26l-.06.06-.01-.01Z"/><path fill="#30A46C" d="M148.05 111.58c.23-.25.59-.11.99.26.13.12.3.57.26.67-.08.2-.16.39-.26.55-.08.08-1.18 1.1-1.41 1.56-.28.39-.56.76-.86 1.11-.62.69-1.17 1.44-1.59 2.26-.1.18-.24.33-.37.49-.5.53-.8 1.2-.94 1.9-.02.12-.08.23 0 .37.04.11 0 .64-.1 1.14-.08.51-.15 1.03-.21 1.14-.12.29-.23.58-.33.89l-.24.93c-.03.09.03.18-.1.27-.3.22-.22.42-.22.62-.02.28.02.56-.03.86-.02.15-.16.33-.27.51-.1.16-.56.22-.62.19-.17-.1-.36.07-.54.14-.06.02-.14.05-.2.06-.06 0-.4-.39-.74-.86-.33-.46-.59-1-.62-1.11-.02-.03-.15-.77-.26-1.57-.04-.79-.05-1.64-.04-1.81 0-.18.1-.35.17-.51 0-.04.05-.66.16-1.27.08-.62.28-1.21.28-1.26.19-.46.3-.95.76-1.29.09-.06.12-.16.15-.25.35-.77.87-1.44 1.41-2.07.27-.34.52-.67.78-1 .05-.06.13-.09.19-.14.08-.06.17-.1.24-.18.65-.76 1.5-1.32 2.28-1.92.17-.17 1.27-.48 1.48-.61.12-.09.71.02.8-.07Zm-8.29-4.7c.17-.23.5-.16.87.08.12.08.3.41.27.5-.06.17-.12.35-.19.5-.06.08-.99 1.13-1.21 1.56-.25.39-.51.74-.78 1.08-.53.71-1.07 1.39-1.5 2.15-.1.16-.23.31-.37.45-.5.46-.81 1.06-1.05 1.68-.04.1-.1.2-.05.34.04.22-.55 1.87-.68 2.07-.18.26-.35.5-.52.74-.15.26-.3.52-.46.79-.05.07-.04.17-.18.22-.33.12-.33.31-.4.49-.1.25-.19.5-.32.74-.07.12-.23.24-.36.36-.12.11-.47.02-.51-.03-.1-.13-.29-.05-.44-.05h-.16c-.08 0-.71-1.78-.7-1.99 0-.01-.02-.19 0-.44s.06-.58.09-.92c.08-.68.25-1.38.28-1.52.03-.15.15-.27.24-.4 0-.07.65-2.03.72-2.09.22-.36.34-.79.8-1.01.09-.04.12-.12.16-.2.38-.62.9-1.14 1.41-1.65.25-.28.49-.54.74-.81.05-.05.12-.07.17-.11.07-.05.16-.08.21-.14.59-.63 1.35-1.07 1.99-1.63.15-.14 1.07-.47 1.24-.6.1-.08.61-.05.68-.14l.01-.02Z"/><path fill="#231F20" d="M250.09 157.54c-.26.11.26-.1.31-.12.13-.05.27-.1.41-.14.32-.1.64-.19.96-.27.32-.08.65-.14.98-.19-.32.05.25-.03.31-.03l.43-.03c.33-.02.67-.02 1-.01.19 0 .38.02.57.03.1 0 .19.02.28.03l-.21-.03c.01.07.61.08.68.19-.2-.09-.23-.1-.08-.03.06.03.11.06.17.1.13.09.1.07-.08-.06.09.09.09.08 0-.02-.12-.35.12.52-.07-.14-.02-.26-.03-.3-.02-.14.04-.23.05-.29.02-.18-.03.11 0 .06.08-.17-.08.13-.05.09.1-.12-.17.2.32-.2.02-.03-.1.05-.05.03.17-.07-.05.02-.11.03-.16.04.26-.03.3-.03.14-.02h-.27c-.16-.01-.12 0 .13.02-.03-.03-.26-.08-.31-.08-.11-.04-.06-.02.15.07-.05-.02-.11-.05-.16-.08-.12-.07-.24-.15-.35-.23-.06-.04-.41-.31-.13-.1-.18-.14-.36-.28-.55-.42-.52-.39-1.12-.74-1.78-.84-.77-.12-1.65.2-1.85 1.05-.16.72.22 1.72 1.05 1.85.14.02.27.06.4.09.16.04-.07-.03-.09-.04.07.04.14.07.21.11.1.06.2.13.3.19.09.06.43.31.18.13.57.43 1.09.86 1.77 1.1 1.16.4 2.64.18 3.42-.83.99-1.28.41-2.99-.93-3.75-1.15-.65-2.59-.69-3.88-.61-1.69.1-3.28.51-4.84 1.18-.72.31-.94 1.43-.54 2.05.48.75 1.28.87 2.05.54l.01.01Z"/><path fill="#7C3AED" d="M406.66 301.57c-.17 6.67-8.09 10.64-13.54 6.74-3.24-2.32-4.45-7.06-2.74-10.65 3.88-8.11 16.5-5.04 16.27 3.91h.01Z" opacity=".2"/><path fill="#231F20" d="M394.2 308.75c1.16-3.43 2.15-6.92 3.31-10.35.24-.7-.27-1.5-.96-1.69-.75-.21-1.45.25-1.69.96-1.16 3.43-2.15 6.92-3.31 10.35-.24.7.27 1.5.96 1.69.75.21 1.45-.25 1.69-.96Z"/><path fill="#231F20" d="M391.04 297.83c0-.22-.02-.08-.02-.02 0-.1.05-.23.08-.32.06-.21.13-.42.21-.63 0-.01.09-.19.09-.21l.04-.09-.71.45c-.33.11-.44.04-.24.04s-.37-.09-.2-.03c.06.02.13.02.19.03.17.04.33.07.5.11 1.02.25 2.02.56 3.02.87 2.29.71 4.57 1.46 6.79 2.36-.25-.1-.15-.07.01 0 .09.04.17.08.26.12.1.05.23.16.34.19-.15-.04-.23-.24-.34-.42.09.15-.22-.4-.18-.36-.07-.06 0-.14 0 .09.01.43.04.66-.16 1.02-.86 1.55 1.51 2.94 2.37 1.39.73-1.3.97-3.44-.56-4.23-1.04-.54-2.19-.92-3.29-1.31-2.55-.91-5.16-1.84-7.81-2.43-.46-.1-.97-.23-1.44-.1-.72.2-.97.87-1.23 1.49s-.51 1.29-.48 1.97c.07 1.76 2.82 1.77 2.75 0l.01.02Z"/><path fill="#4497F7" d="M355.78 81.15c4.17 5.21.68 13.35-6 13.88-3.97.31-7.96-2.52-8.96-6.38-2.26-8.7 9.36-14.5 14.96-7.5Z" opacity=".2"/><path fill="#231F20" d="M350.97 94.89c-1.34-3.4-2.81-6.66-4.14-10.04-.27-.69-.92-1.17-1.69-.96-.66.18-1.23 1-.96 1.69 1.34 3.4 2.81 6.66 4.14 10.04.27.69.92 1.17 1.69.96.66-.18 1.23-1 .96-1.69Z"/><path fill="#231F20" d="M341.36 88.28c.17.19-.09-.17-.13-.25-.07-.15-.12-.3-.17-.46-.04-.13-.07-.47-.16-.56 0 0-.32 1.43-.59 1.27.03.02.55-.32.6-.34.8-.41 1.63-.77 2.46-1.12.13-.06.26-.11.39-.17.28-.12-.03.01.18-.08.27-.11.55-.23.82-.34.56-.23 1.12-.46 1.69-.68 1.02-.4 2.04-.79 3.08-1.15.42-.15.84-.29 1.27-.41.13-.04.27-.06.4-.1.26-.07-.18.02-.18.02.22 0-.3-.06-.24-.04l-.61-.35c.43.36.66.64.77 1.2.14.73 1.02 1.15 1.69.96.76-.21 1.1-.96.96-1.69-.18-.92-.76-1.79-1.46-2.4-.55-.47-1.11-.46-1.77-.32-1.06.23-2.1.66-3.11 1.05-2.62.99-5.29 1.99-7.77 3.28-.42.22-.87.46-1.12.88-.36.61-.12 1.3.09 1.92.23.66.49 1.31.97 1.83 1.2 1.31 3.14-.64 1.94-1.94v-.01Z"/><path fill="#16A34A" d="M500.33 181.84c-.18 7.08-8.59 11.3-14.38 7.16-3.44-2.46-4.73-7.5-2.91-11.31 4.12-8.61 17.53-5.36 17.29 4.16v-.01Z" opacity=".2"/><path fill="#231F20" d="M485.76 178.49c.66 2.53 1.63 4.97 2.87 7.27.47.88 1.67.93 2.36.3 3.57-3.29 7.68-5.96 11.48-8.97.64-.5.53-1.6 0-2.12-.63-.63-1.48-.5-2.12 0-3.8 3.01-7.91 5.68-11.48 8.97l2.36.3a29.694 29.694 0 0 1-2.56-6.55c-.49-1.87-3.38-1.07-2.89.8h-.02Z"/></svg>